<svg width="28" height="23" viewBox="0 0 28 23" fill="none" xmlns="http://www.w3.org/2000/svg">
<path fill-rule="evenodd" clip-rule="evenodd" d="M4.68889 0.0825581C4.60931 0.126125 4.51693 0.240558 4.48365 0.336792C4.40221 0.572109 4.4027 2.4477 4.48425 2.60835C4.60324 2.84273 4.75933 2.91927 5.12094 2.9206L5.46301 2.92181V5.61586C5.46301 8.39285 5.47795 8.60236 5.68407 8.71354C5.82703 8.79063 6.0269 8.78021 6.15038 8.68927C6.2525 8.61405 6.25765 8.50182 6.28398 5.7802L6.31134 2.94939L7.92328 2.93477C9.48936 2.92054 9.53878 2.91674 9.66099 2.80104C9.82355 2.64717 9.82869 2.37055 9.67161 2.22722C9.56314 2.12823 9.43173 2.12128 7.40027 2.10655L5.24408 2.09095V1.45856V0.826177H14.0011H22.758V1.46038V2.09459H16.8501H10.9423L10.7932 2.22374C10.6184 2.37529 10.5914 2.65324 10.7374 2.80037C10.8235 2.88712 11.2418 2.89633 16.2607 2.92181L21.6908 2.94939V12.5452V22.141H17.7501H13.8095L13.7821 21.6364C13.7528 21.0953 13.6812 20.9419 13.4278 20.8779C13.3083 20.8476 13.2993 20.8153 13.2813 20.3533C13.2647 19.9261 13.2451 19.8427 13.1323 19.7218C13.0608 19.6451 12.95 19.5749 12.886 19.5657L12.7696 19.549L12.7422 16.6813C12.7123 13.5367 12.7249 13.6482 12.3787 13.4827C12.1233 13.3606 8.87325 13.3606 8.61782 13.4827C8.27165 13.6482 8.28429 13.5367 8.2543 16.6813L8.22693 19.549L8.11057 19.5657C8.04659 19.5749 7.93576 19.6451 7.86428 19.7218C7.75148 19.8427 7.73183 19.9261 7.71519 20.3533C7.69724 20.8153 7.68821 20.8476 7.56873 20.8779C7.31538 20.9419 7.24374 21.0953 7.2144 21.6364L7.18704 22.141H6.74919H6.31134L6.29744 15.9865C6.28365 9.90231 6.28222 9.83084 6.17358 9.73174C6.0228 9.59425 5.7579 9.60402 5.61045 9.75253L5.49037 9.87353L5.47598 16.0221L5.46159 22.1706L4.1898 22.1558L2.91801 22.141L2.90351 20.506L2.88906 18.8711L3.16118 18.8053C3.45678 18.7338 3.97372 18.4437 4.22532 18.208C4.31218 18.1266 4.47725 17.9152 4.59218 17.7384C5.32481 16.6104 5.01175 15.072 3.89327 14.3041C3.3702 13.945 2.67106 13.7848 2.09518 13.892C1.92054 13.9246 1.73248 13.9923 1.67737 14.0426C1.55499 14.1542 1.54661 14.4346 1.66078 14.5988C1.73861 14.7107 1.78409 14.7184 2.3048 14.7076C2.83882 14.6965 2.88233 14.7045 3.23058 14.8771C4.20573 15.3606 4.46947 16.5655 3.79513 17.4564C3.65809 17.6374 3.22839 17.9379 3.01379 18.0027C2.89185 18.0395 2.89065 18.0345 2.89065 17.4887C2.89065 16.9589 2.88506 16.9331 2.74643 16.8232C2.56483 16.6792 2.39708 16.6778 2.24673 16.819C2.115 16.9426 2.07515 17.1186 2.05567 17.6619L2.04231 18.0359L1.75853 17.8931C1.2341 17.6294 0.880318 17.0988 0.826024 16.4945C0.804077 16.2503 0.829418 16.0939 0.946214 15.7531C1.11446 15.2621 1.09946 15.0917 0.878511 14.9825C0.582526 14.8362 0.328792 15.0101 0.154911 15.4785C-0.35168 16.8428 0.429607 18.3892 1.83707 18.8079L2.06968 18.8771V20.5228V22.1686H1.74529C1.45998 22.1686 1.40716 22.1861 1.30744 22.3139C1.24505 22.3938 1.19398 22.4919 1.19398 22.5319C1.19398 22.6777 1.31877 22.8748 1.44886 22.9346C1.63895 23.0218 26.3632 23.0218 26.5533 22.9346C26.6834 22.8748 26.8081 22.6777 26.8081 22.5319C26.8081 22.4919 26.7571 22.3938 26.6947 22.3139C26.595 22.1861 26.5422 22.1686 26.2568 22.1686H25.9324V20.5228V18.8771L26.1651 18.8079C27.3692 18.4497 28.1668 17.2198 27.9702 16.0243C27.7867 14.9086 26.9307 14.048 25.8485 13.8914C25.251 13.8049 24.6844 13.9207 24.5982 14.147C24.533 14.318 24.5649 14.4994 24.6791 14.6066C24.7787 14.7 24.8681 14.7136 25.3496 14.7077C25.806 14.7021 25.9502 14.7214 26.158 14.8163C26.519 14.981 26.8358 15.2911 27.0117 15.6522C27.1376 15.9104 27.1637 16.0359 27.1627 16.378C27.1609 17.052 26.8294 17.5985 26.2436 17.8931L25.9598 18.0359L25.9465 17.6619C25.927 17.1186 25.8871 16.9426 25.7554 16.819C25.605 16.6778 25.4373 16.6792 25.2557 16.8232C25.1171 16.9331 25.1115 16.9589 25.1115 17.4887C25.1115 18.0345 25.1103 18.0395 24.9883 18.0027C24.7737 17.9379 24.344 17.6374 24.207 17.4564C23.8179 16.9424 23.7333 16.3385 23.9621 15.7062C24.1129 15.2891 24.0838 15.0775 23.8603 14.9653C23.2782 14.6728 22.7991 16.0382 23.1099 17.1042C23.2099 17.4472 23.5297 17.9765 23.7768 18.208C24.0284 18.4437 24.5453 18.7338 24.8409 18.8053L25.1131 18.8711L25.0986 20.506L25.0841 22.141L23.8116 22.1558L22.5391 22.1706V12.5462V2.92181H22.8694C23.2546 2.92181 23.4344 2.82712 23.5202 2.57907C23.5985 2.35252 23.5971 0.564003 23.5184 0.336406C23.3933 -0.024981 24.0676 -0.00126715 13.9901 0.00115937C6.13801 0.00303441 4.81297 0.0146706 4.68889 0.0825581ZM8.81939 5.37249C8.4765 5.52514 8.44788 5.63417 8.42747 6.86679L8.40902 7.97676L8.21719 8.04663C7.92881 8.15174 7.85782 8.37498 7.88026 9.10663C7.89761 9.67323 7.9061 9.7104 8.05031 9.8556L8.20203 10.0084H10.4983H12.7945L12.9462 9.85555C13.0889 9.71189 13.0991 9.66915 13.1172 9.14165C13.1394 8.48914 13.07 8.1834 12.88 8.0961L12.7499 8.03643L12.7324 6.85879L12.7149 5.6811L12.536 5.50093L12.3572 5.32076L10.6752 5.30797C9.32976 5.29771 8.95841 5.31061 8.81939 5.37249ZM15.8319 5.36951C15.5007 5.51725 15.4788 5.6099 15.4788 6.86298C15.4788 7.81655 15.4662 7.99545 15.3993 7.99545C15.2299 7.99545 15.0424 8.12913 14.9568 8.31096C14.8867 8.45986 14.8713 8.63093 14.8857 9.10189C14.9032 9.67361 14.9115 9.71023 15.0559 9.8556L15.2076 10.0084H17.5039H19.8001L19.9518 9.8556C20.0971 9.70929 20.1043 9.67626 20.1218 9.07586C20.1415 8.40041 20.0756 8.14799 19.8618 8.07961C19.7617 8.04762 19.7546 7.97681 19.738 6.86337L19.7205 5.6811L19.5416 5.50093L19.3627 5.32076L17.6807 5.30797C16.366 5.29793 15.9623 5.31139 15.8319 5.36951ZM11.9213 7.05793V7.99545H10.6077H9.29419V7.05793V6.12041H10.6077H11.9213V7.05793ZM18.9269 7.05793V7.99545H17.6133H16.2998V7.05793V6.12041H17.6133H18.9269V7.05793ZM12.3044 9.01569V9.20871H10.4983H8.69214V9.01569V8.82268H10.4983H12.3044V9.01569ZM19.31 9.01569V9.20871H17.5039H15.6977V9.01569V8.82268H17.5039H19.31V9.01569ZM15.7696 13.5075C15.6737 13.5665 15.5691 13.664 15.537 13.7243C15.5013 13.7916 15.4788 14.2721 15.4788 14.9681C15.4788 15.9556 15.4679 16.1022 15.394 16.1022C15.3473 16.1022 15.2386 16.139 15.1523 16.184C14.9256 16.3021 14.8608 16.5584 14.8858 17.2383C14.9056 17.7771 14.9161 17.8214 15.0573 17.9637L15.2076 18.1152H17.5039H19.8001L19.9518 17.9624C20.0971 17.8161 20.1043 17.7831 20.1218 17.1827C20.1413 16.5134 20.0813 16.2782 19.8607 16.1592C19.7634 16.1068 19.7545 16.0197 19.7381 14.9581C19.7188 13.7022 19.7026 13.6349 19.3843 13.4827C19.2426 13.4149 18.9166 13.4 17.5777 13.4002C16.0566 13.4004 15.932 13.4078 15.7696 13.5075ZM11.9213 16.8743V19.5214H10.4983H9.07526V16.8743V14.2272H10.4983H11.9213V16.8743ZM18.9269 15.1647V16.1022H17.6133H16.2998V15.1647V14.2272H17.6133H18.9269V15.1647ZM9.41317 16.6159C9.33091 16.7042 9.29419 16.8134 9.29419 16.9699C9.29419 17.2728 9.33392 17.36 9.51481 17.4543C9.82513 17.616 10.1152 17.378 10.1152 16.9619C10.1152 16.547 9.67824 16.3317 9.41317 16.6159ZM19.31 17.1233V17.317L17.5175 17.3025L15.7251 17.2879L15.708 17.1087L15.6908 16.9295H17.5004H19.31V17.1233ZM12.4686 20.5968V20.845H10.4983H8.52795V20.5968V20.3487H10.4983H12.4686V20.5968ZM12.9612 21.9204V22.1686H10.4983H8.03537V21.9204V21.6722H10.4983H12.9612V21.9204Z" fill="#263238"/>
</svg>
