<svg width="38" height="35" viewBox="0 0 38 35" fill="none" xmlns="http://www.w3.org/2000/svg">
<path fill-rule="evenodd" clip-rule="evenodd" d="M6.26568 0.116606C4.81757 0.466565 3.47142 1.5638 2.81494 2.92912C2.27281 4.05672 2.29256 3.75532 2.29256 10.9018V17.3059L1.93243 17.7269C0.922796 18.9074 0.286215 20.3415 0.0649378 21.9341C0.00902446 22.3366 -0.0102816 24.1799 0.005089 27.6544L0.0278108 32.7807L0.307452 33.3463C0.630235 33.9991 1.1036 34.471 1.75853 34.7925C2.14346 34.9815 2.25402 35 2.99798 35C3.7299 35 3.85918 34.9792 4.24196 34.7999C4.84438 34.5176 5.43893 33.9303 5.72474 33.3351C5.93718 32.8927 5.96213 32.7656 5.99131 31.9748L6.02361 31.1025H18.9997H31.9759L32.0082 31.9748C32.0374 32.7656 32.0623 32.8927 32.2748 33.3351C32.5606 33.9303 33.1551 34.5176 33.7575 34.7999C34.1403 34.9792 34.2696 35 35.0015 35C35.7455 35 35.856 34.9815 36.241 34.7925C36.8959 34.471 37.3693 33.9991 37.692 33.3463L37.9717 32.7807L37.9934 27.6172C38.0113 23.3191 37.9964 22.3356 37.904 21.7485C37.6562 20.1757 36.9557 18.6905 35.9347 17.5737L35.5584 17.1621V10.8555C35.5584 4.78752 35.5528 4.5268 35.4095 3.96177C35.0158 2.40945 33.9957 1.165 32.5596 0.484753C31.4593 -0.0363987 32.38 -0.00395653 18.8836 0.00287338C8.52419 0.00814429 6.64437 0.0250706 6.26568 0.116606ZM31.331 1.60115C31.5529 1.66692 31.9012 1.80523 32.1052 1.90849C32.5696 2.14368 33.38 2.95725 33.6449 3.45435C34.0777 4.26644 34.0733 4.19659 34.0733 10.3314C34.0733 13.426 34.0644 15.9579 34.0534 15.9579C34.0424 15.9579 33.7673 15.8243 33.4422 15.661C33.117 15.4976 32.8086 15.364 32.7567 15.364C32.684 15.364 32.6625 15.0462 32.6625 13.9671C32.6625 12.3525 32.5956 11.8955 32.2491 11.1444C31.9552 10.5073 31.1571 9.66118 30.5407 9.33335C29.7552 8.91553 29.6327 8.90529 25.4206 8.90529C21.1718 8.90529 21.1965 8.90306 20.319 9.36742C20.0849 9.4914 19.6925 9.79169 19.447 10.0349L19.0006 10.4771L18.5641 10.0406C18.0921 9.56868 17.4902 9.2113 16.8514 9.0237C16.261 8.85035 8.93593 8.84634 8.27262 9.0191C7.64599 9.18227 7.15888 9.46816 6.57881 10.0131C6.18355 10.3846 6.00765 10.6226 5.78355 11.0896C5.40307 11.8822 5.33698 12.3063 5.33698 13.9553V15.3403L5.03321 15.4405C4.86606 15.4956 4.51521 15.6659 4.25354 15.8187L3.77764 16.0967V10.3616C3.77764 5.30355 3.79175 4.57884 3.89734 4.22324C4.25993 3.00135 5.163 2.0635 6.37483 1.65044L6.85919 1.48533L18.8934 1.4834C29.748 1.4817 30.9672 1.4932 31.331 1.60115ZM16.8865 10.6247C17.342 10.8651 17.8435 11.3941 18.0593 11.8618C18.1995 12.1658 18.2225 12.3673 18.2444 13.4841L18.2693 14.7593L12.7127 14.7896C9.65664 14.8063 7.08099 14.846 6.98914 14.878L6.82206 14.9359V13.7529C6.82206 12.4803 6.9056 12.0181 7.22794 11.5076C7.51649 11.0507 8.07948 10.6212 8.60372 10.4581C8.70604 10.4263 10.5273 10.4063 12.651 10.4137L16.5122 10.4272L16.8865 10.6247ZM29.7554 10.5995C30.2714 10.8748 30.6923 11.3134 30.9261 11.8194C31.1329 12.267 31.1412 12.3294 31.165 13.6111L31.1897 14.9391L31.0165 14.8792C30.9212 14.8461 28.3428 14.8058 25.2867 14.7896L19.7302 14.76L19.7551 13.4844C19.777 12.3673 19.8 12.1658 19.9402 11.8618C20.2327 11.2278 20.8711 10.6621 21.5244 10.4582C21.6265 10.4264 23.4476 10.4063 25.5712 10.4137L29.4325 10.4272L29.7554 10.5995ZM30.4342 16.3326C32.1214 16.5057 33.639 17.2528 34.7321 18.4486C35.2488 19.0139 35.5082 19.402 35.8577 20.1331C36.3731 21.2109 36.4681 21.7115 36.5054 23.5462L36.5382 25.1583L32.6636 25.1795L28.789 25.2006L28.5724 25.443C28.2764 25.7744 28.2765 26.1349 28.5728 26.4312L28.7899 26.6482H32.6568H36.5237V28.133V29.6177H18.9997H1.47577V28.133V26.6482H11.7063C23.0265 26.6482 22.1691 26.6872 22.3414 26.165C22.4628 25.7973 22.2594 25.3845 21.8957 25.2604C21.6996 25.1936 19.1596 25.1708 11.5477 25.1676L1.45965 25.1634L1.49366 23.5116C1.52507 21.9855 1.54289 21.8094 1.72786 21.1976C2.28818 19.3435 3.4066 17.9577 5.05303 17.0774C5.74248 16.7088 6.69063 16.4161 7.45322 16.3366C8.35564 16.2425 29.5198 16.2388 30.4342 16.3326ZM25.1839 25.221C24.9304 25.2616 24.6431 25.6513 24.6431 25.9544C24.6431 26.3271 24.9765 26.6482 25.3634 26.6482C25.9167 26.6482 26.2399 26.1684 26.028 25.6614C25.9689 25.52 25.8826 25.3809 25.8362 25.3522C25.6888 25.2611 25.354 25.1937 25.1839 25.221ZM4.52019 31.7359C4.52019 32.6614 4.30091 33.0968 3.67235 33.419C3.23819 33.6415 2.55045 33.5835 2.13366 33.2891C1.6692 32.9611 1.51794 32.6101 1.48713 31.7892L1.46144 31.1025H2.99077H4.52019V31.7359ZM36.5124 31.7892C36.4815 32.6101 36.3303 32.9611 35.8658 33.2891C35.449 33.5835 34.7613 33.6415 34.3271 33.419C33.6986 33.0968 33.4793 32.6614 33.4793 31.7359V31.1025H35.0087H36.5381L36.5124 31.7892Z" fill="#89B948"/>
</svg>
