<svg width="35" height="39" viewBox="0 0 35 39" fill="none" xmlns="http://www.w3.org/2000/svg">
<path fill-rule="evenodd" clip-rule="evenodd" d="M7.49765 0.104651C7.11364 0.222589 6.45867 0.883408 6.34091 1.27176C6.28857 1.44436 6.24577 1.77621 6.24577 2.00919V2.43284L4.30488 2.45777L2.36399 2.4827L1.76809 2.7698C0.855151 3.20969 0.265122 3.93478 0.0618471 4.86669C0.0101286 5.10348 -0.00958863 10.6326 0.00433859 20.974L0.0254642 36.7208L0.317701 37.297C0.669637 37.9908 1.12274 38.423 1.85009 38.7587L2.37275 39H17.5127H32.6527L33.1754 38.7587C33.9028 38.423 34.3558 37.9908 34.7078 37.2969L35 36.7208V20.7453V4.76979L34.7524 4.26053C34.4079 3.55207 33.9642 3.11035 33.2524 2.76744L32.6615 2.4827L30.7206 2.45777L28.7797 2.43284V2.00919C28.7797 1.40128 28.6408 1.03169 28.2554 0.613988C27.514 -0.189469 26.409 -0.206089 25.6082 0.574192C25.1647 1.0063 25.024 1.35333 25.024 2.01506V2.44458H17.5127H10.0014V2.01506C10.0014 1.40121 9.86356 1.03276 9.47712 0.613988C8.97073 0.0652372 8.23916 -0.123067 7.49765 0.104651ZM8.55745 1.41196C8.74797 1.59752 8.74954 1.61086 8.74954 3.05447C8.74954 4.49809 8.74797 4.51143 8.55745 4.69699C8.3034 4.9446 7.94379 4.9446 7.68974 4.69699C7.49922 4.51143 7.49765 4.49809 7.49765 3.05447C7.49765 1.61086 7.49922 1.59752 7.68974 1.41196C7.81078 1.29394 7.97118 1.22479 8.12359 1.22479C8.27601 1.22479 8.43641 1.29394 8.55745 1.41196ZM27.3357 1.41196C27.5262 1.59752 27.5278 1.61086 27.5278 3.05447C27.5278 4.49809 27.5262 4.51143 27.3357 4.69699C27.0817 4.9446 26.7221 4.9446 26.468 4.69699C26.2775 4.51143 26.2759 4.49809 26.2759 3.05447C26.2759 1.61086 26.2775 1.59752 26.468 1.41196C26.5891 1.29394 26.7495 1.22479 26.9019 1.22479C27.0543 1.22479 27.2147 1.29394 27.3357 1.41196ZM6.24577 4.09388C6.24577 4.75561 6.38645 5.10264 6.82993 5.53475C7.63074 6.31503 8.73577 6.29841 9.47712 5.49496C9.86356 5.07619 10.0014 4.70774 10.0014 4.09388V3.66436H17.5127H25.024V4.09388C25.024 4.75561 25.1647 5.10264 25.6082 5.53475C26.3998 6.30604 27.404 6.30604 28.1955 5.53475C28.639 5.10264 28.7797 4.75561 28.7797 4.09388V3.66436H30.4912C32.4566 3.66436 32.6909 3.71163 33.2172 4.21449C33.7352 4.70926 33.7872 4.95261 33.7872 6.87987V8.5435H17.5127H1.23823V6.87987C1.23823 4.89391 1.28799 4.67915 1.86519 4.17355C2.07308 3.99134 2.36039 3.80578 2.50365 3.76111C2.652 3.71483 3.5129 3.67656 4.50487 3.67214L6.24577 3.66436V4.09388ZM12.6973 5.6812C12.5762 5.79914 12.5052 5.95542 12.5052 6.10393C12.5052 6.25244 12.5762 6.40873 12.6973 6.52666L12.8893 6.71383H17.5127H22.1362L22.3282 6.52666C22.4493 6.40873 22.5203 6.25244 22.5203 6.10393C22.5203 5.95542 22.4493 5.79914 22.3282 5.6812L22.1362 5.49404H17.5127H12.8893L12.6973 5.6812ZM33.7872 18.2971V26.8308L31.2248 26.8571C28.9041 26.8809 28.627 26.8974 28.2879 27.0318C27.5104 27.3399 26.743 28.0901 26.4563 28.8224C26.3416 29.1152 26.3179 29.5317 26.2941 31.6622L26.2662 34.159H14.5633C5.60355 34.159 2.78485 34.1373 2.53831 34.0663C2.10852 33.9425 1.46036 33.311 1.33337 32.8922C1.26053 32.652 1.23823 29.9046 1.23823 21.1709V9.76329H17.5127H33.7872V18.2971ZM4.4853 12.3105C4.19753 12.4351 3.93651 12.7036 3.82548 12.9892C3.77705 13.1138 3.742 13.8106 3.742 14.6498C3.742 16.2878 3.78621 16.4752 4.25551 16.8242L4.55087 17.0439L6.13357 17.0672C7.93127 17.0937 8.11334 17.0562 8.48492 16.5814L8.71042 16.2934V14.6424V12.9914L8.48492 12.7034C8.12516 12.2439 7.93745 12.2025 6.22871 12.2058C5.14677 12.208 4.6536 12.2375 4.4853 12.3105ZM11.9927 12.3078C11.6779 12.4445 11.3494 12.8333 11.2906 13.139C11.2646 13.2741 11.2544 14.0425 11.2679 14.8467C11.2948 16.4469 11.3118 16.5089 11.8311 16.8867C12.0339 17.0342 12.1522 17.0439 13.7571 17.0439C15.639 17.0439 15.6623 17.0385 16.0604 16.519C16.2118 16.3214 16.2217 16.2062 16.2217 14.6424C16.2217 13.0787 16.2118 12.9635 16.0604 12.7659C15.6678 12.2535 15.6242 12.2427 13.8494 12.2227C12.6225 12.2088 12.1737 12.2294 11.9927 12.3078ZM19.504 12.3078C19.1892 12.4445 18.8607 12.8333 18.8019 13.139C18.7759 13.2741 18.7657 14.0425 18.7792 14.8467C18.8061 16.4469 18.8231 16.5089 19.3424 16.8867C19.5452 17.0342 19.6635 17.0439 21.2684 17.0439C22.8733 17.0439 22.9915 17.0342 23.1943 16.8867C23.7276 16.4988 23.733 16.4761 23.733 14.6424C23.733 13.0787 23.7231 12.9635 23.5717 12.7659C23.1791 12.2535 23.1355 12.2427 21.3607 12.2227C20.1338 12.2088 19.685 12.2294 19.504 12.3078ZM27.0153 12.3078C26.7005 12.4445 26.372 12.8333 26.3132 13.139C26.2872 13.2741 26.277 14.0425 26.2905 14.8467C26.3174 16.4468 26.3344 16.5086 26.8535 16.8867C27.0521 17.0313 27.1964 17.0457 28.6598 17.0672C30.466 17.0937 30.647 17.0565 31.0188 16.5814L31.2443 16.2934V14.6349C31.2443 13.0787 31.2344 12.9634 31.083 12.7659C30.6904 12.2535 30.6468 12.2427 28.872 12.2227C27.6451 12.2088 27.1963 12.2294 27.0153 12.3078ZM7.49765 14.6424V15.8622H6.24577H4.99388V14.6424V13.4226H6.24577H7.49765V14.6424ZM15.009 14.6424V15.8622H13.7571H12.5052V14.6424V13.4226H13.7571H15.009V14.6424ZM22.5203 14.6424V15.8622H21.2684H20.0165V14.6424V13.4226H21.2684H22.5203V14.6424ZM30.0316 14.6424V15.8622H28.7797H27.5278V14.6424V13.4226H28.7797H30.0316V14.6424ZM4.48139 19.6265C4.16654 19.7632 3.83808 20.152 3.77924 20.4577C3.75326 20.5928 3.74309 21.3612 3.75655 22.1654C3.78347 23.7655 3.80052 23.8273 4.31959 24.2054C4.51817 24.35 4.66245 24.3644 6.1259 24.3859C7.93206 24.4124 8.11303 24.3752 8.48492 23.9001L8.71042 23.6121V21.9536C8.71042 20.3974 8.70048 20.2821 8.54908 20.0846C8.15646 19.5722 8.11287 19.5614 6.33809 19.5414C5.11117 19.5275 4.66237 19.5481 4.48139 19.6265ZM11.9927 19.6265C11.6779 19.7632 11.3494 20.152 11.2906 20.4577C11.2646 20.5928 11.2544 21.3612 11.2679 22.1654C11.2948 23.7655 11.3118 23.8273 11.8309 24.2054C12.0295 24.35 12.1738 24.3644 13.6372 24.3859C15.4434 24.4124 15.6243 24.3752 15.9962 23.9001L16.2217 23.6121V21.9536C16.2217 20.3974 16.2118 20.2821 16.0604 20.0846C15.6678 19.5722 15.6242 19.5614 13.8494 19.5414C12.6225 19.5275 12.1737 19.5481 11.9927 19.6265ZM19.504 19.6265C19.1892 19.7632 18.8607 20.152 18.8019 20.4577C18.7759 20.5928 18.7657 21.3612 18.7792 22.1654C18.8061 23.7657 18.8231 23.8276 19.3424 24.2054C19.5452 24.3529 19.6635 24.3626 21.2684 24.3626C22.8733 24.3626 22.9915 24.3529 23.1943 24.2054C23.7276 23.8175 23.733 23.7948 23.733 21.9611C23.733 20.3974 23.7231 20.2822 23.5717 20.0846C23.1791 19.5722 23.1355 19.5614 21.3607 19.5414C20.1338 19.5275 19.685 19.5481 19.504 19.6265ZM27.0153 19.6265C26.7005 19.7632 26.372 20.152 26.3132 20.4577C26.2872 20.5928 26.277 21.3612 26.2905 22.1654C26.3174 23.7657 26.3345 23.8276 26.8538 24.2054C27.0566 24.3529 27.1748 24.3626 28.7797 24.3626C30.3846 24.3626 30.5028 24.3529 30.7056 24.2054C31.2389 23.8175 31.2443 23.7948 31.2443 21.9611C31.2443 20.3974 31.2344 20.2822 31.083 20.0846C30.6904 19.5722 30.6468 19.5614 28.872 19.5414C27.6451 19.5275 27.1963 19.5481 27.0153 19.6265ZM7.49765 21.9611V23.1809H6.24577H4.99388V21.9611V20.7414H6.24577H7.49765V21.9611ZM15.009 21.9611V23.1809H13.7571H12.5052V21.9611V20.7414H13.7571H15.009V21.9611ZM22.5203 21.9611V23.1809H21.2684H20.0165V21.9611V20.7414H21.2684H22.5203V21.9611ZM30.0316 21.9611V23.1809H28.7797H27.5278V21.9611V20.7414H28.7797H30.0316V21.9611ZM4.46027 26.9685C4.31732 27.0371 4.10606 27.2137 3.99081 27.3608C3.78151 27.6279 3.78104 27.6315 3.75718 29.1705C3.72995 30.922 3.76852 31.0994 4.25551 31.4616L4.55087 31.6813L6.13998 31.7047C7.93167 31.7311 8.1146 31.692 8.49963 31.2L8.71042 30.9308V29.2798V27.6289L8.49963 27.3597C8.12704 26.8836 7.93628 26.84 6.23395 26.842C4.99287 26.8434 4.67324 26.8662 4.46027 26.9685ZM11.9927 26.9453C11.6779 27.0819 11.3494 27.4707 11.2906 27.7764C11.2646 27.9115 11.2544 28.6799 11.2679 29.4842C11.2948 31.0844 11.3118 31.1463 11.8311 31.5241C12.0339 31.6716 12.1522 31.6813 13.7571 31.6813C15.362 31.6813 15.4802 31.6716 15.683 31.5241C16.2162 31.1362 16.2217 31.1135 16.2217 29.2798C16.2217 27.7161 16.2118 27.6009 16.0604 27.4033C15.6678 26.8909 15.6242 26.8801 13.8494 26.8601C12.6225 26.8462 12.1737 26.8668 11.9927 26.9453ZM19.504 26.9453C19.1892 27.0819 18.8607 27.4707 18.8019 27.7764C18.7759 27.9115 18.7657 28.6799 18.7792 29.4842C18.8061 31.0844 18.8231 31.1463 19.3424 31.5241C19.5452 31.6716 19.6635 31.6813 21.2684 31.6813C22.8733 31.6813 22.9915 31.6716 23.1943 31.5241C23.7276 31.1362 23.733 31.1135 23.733 29.2798C23.733 27.7161 23.7231 27.6009 23.5717 27.4033C23.1791 26.8909 23.1355 26.8801 21.3607 26.8601C20.1338 26.8462 19.685 26.8668 19.504 26.9453ZM7.49765 29.2798V30.4996H6.24577H4.99388V29.2798V28.0601H6.24577H7.49765V29.2798ZM15.009 29.2798V30.4996H13.7571H12.5052V29.2798V28.0601H13.7571H15.009V29.2798ZM22.5203 29.2798V30.4996H21.2684H20.0165V29.2798V28.0601H21.2684H22.5203V29.2798ZM30.2267 30.6526L27.5669 33.2451L27.5459 31.4389C27.5208 29.283 27.562 29.0884 28.1532 28.5705C28.362 28.3876 28.65 28.2015 28.7932 28.1568C28.9449 28.1095 29.8536 28.0724 30.97 28.0678L32.8866 28.0601L30.2267 30.6526ZM33.6964 36.5223C33.5714 36.9682 32.9419 37.5947 32.4872 37.7256C32.0193 37.8603 3.0062 37.8603 2.53831 37.7256C2.10852 37.6019 1.46036 36.9704 1.33337 36.5516C1.28103 36.379 1.23823 35.9136 1.23823 35.5173V34.7967L1.80048 35.0687L2.36281 35.3406L14.7661 35.3609L27.1695 35.3811L30.4588 32.1787L33.7481 28.9763L33.7703 32.5778C33.7868 35.2473 33.7677 36.268 33.6964 36.5223Z" fill="#89B948"/>
</svg>
