<svg width="24" height="24" viewBox="0 0 24 24" fill="none" xmlns="http://www.w3.org/2000/svg">
<path fill-rule="evenodd" clip-rule="evenodd" d="M2.35372 0.0885255C2.09206 0.250476 2.05072 0.368665 2.05072 0.955038C2.05072 1.54255 2.10638 1.68993 2.38291 1.83508L2.51997 1.90698V3.32648V4.74594L1.4055 5.61808C0.792569 6.09778 0.233223 6.54435 0.162554 6.61044C0.000991216 6.76173 -0.0456992 6.99001 0.0476347 7.17253C0.161146 7.39439 0.68924 8.06624 0.79942 8.129C1.05737 8.2758 1.16314 8.22533 1.99207 7.56019L2.28535 7.32486V13.1304V18.9359L2.05312 19.0886C1.92543 19.1726 1.73252 19.3423 1.6245 19.4657C1.44267 19.6734 1.15929 20.1908 1.15919 20.3152C1.15915 20.3447 1.09566 20.3957 1.018 20.4283C0.631053 20.5909 0.268839 21.1595 0.268042 21.6055C0.267713 21.7697 0.23571 21.9074 0.17391 22.0103C0.0916504 22.1472 0.0802006 22.2504 0.0802006 22.8567C0.0802006 23.4577 0.0920727 23.5669 0.171845 23.6996C0.367569 24.0254 -0.628039 23.9995 11.7068 23.9995H22.8691L22.9711 23.8893C23.1064 23.7431 23.1011 23.5475 22.9579 23.4021C22.8484 23.2909 22.8151 23.2852 22.2775 23.2852H21.7123V19.8567C21.7123 17.971 21.7191 16.4282 21.7273 16.4282C21.7356 16.4282 21.9712 16.6085 22.2508 16.8288C22.5305 17.0491 22.8122 17.2397 22.8768 17.2522C23.1161 17.2986 23.2594 17.1926 23.6176 16.7042C24.022 16.1528 24.0625 16.0415 23.937 15.827C23.8807 15.7308 22.4781 14.5991 20.1638 12.7826C18.1378 11.1924 16.3997 9.83698 16.3014 9.77059C16.0789 9.62041 15.7028 9.57869 15.4699 9.67845C15.3803 9.71679 15.0431 9.95574 14.7205 10.2094L14.1339 10.6706L14.1105 10.1018C14.0836 9.45017 14.0288 9.33303 13.7508 9.33303C13.4599 9.33303 13.433 9.41579 13.4066 10.3937L13.3831 11.2611L10.6429 13.412C9.13574 14.5951 7.83761 15.629 7.75807 15.7097C7.64625 15.8232 7.61345 15.8983 7.61345 16.0412C7.61345 16.1978 7.6669 16.2969 7.96435 16.6916C8.32741 17.1734 8.49325 17.2967 8.71891 17.253C8.78611 17.2399 10.4076 15.9994 12.3222 14.4963L15.8034 11.7632L18.3942 13.7996L20.985 15.836L20.997 19.5606L21.009 23.2852H19.6068H18.2047L18.1834 22.8732C18.1649 22.5162 18.1478 22.4495 18.055 22.3732C17.9147 22.258 17.7004 22.2612 17.5829 22.3805C17.5038 22.4608 17.4891 22.5392 17.4891 22.8805V23.2852H15.8232H14.1574V20.5466V17.8079L15.8115 17.8204L17.4656 17.8329L17.4891 19.4916C17.5113 21.0636 17.5173 21.1537 17.6036 21.2177C17.8263 21.3828 18.1147 21.2426 18.1696 20.9427C18.1854 20.8561 18.1918 20.0529 18.1839 19.1577C18.1701 17.5988 18.1654 17.5245 18.0723 17.3958C17.8562 17.0972 17.8399 17.095 15.81 17.0949C13.8094 17.0948 13.7537 17.1013 13.5552 17.3574L13.4535 17.4886V20.3869V23.2852H12.1211H10.7887L10.772 22.7236C10.7589 22.2829 10.7371 22.1337 10.6707 22.0309C10.5403 21.8291 10.3179 21.7142 10.0571 21.714L9.82817 21.7138L9.85679 21.4876C9.92929 20.9137 9.66464 20.1592 9.2395 19.7278C8.38687 18.8625 7.04566 18.8255 6.18402 19.6433C5.96779 19.8486 5.96267 19.8505 5.75611 19.8034C5.64114 19.7772 5.45011 19.7693 5.33158 19.7858C5.11676 19.8158 5.11549 19.8151 4.93877 19.5799C4.53681 19.0451 3.87104 18.7139 3.19809 18.7139H2.98922V12.7473V6.78068L5.55813 4.76394C6.97105 3.65472 8.15379 2.74511 8.18645 2.74254C8.21911 2.73997 9.40702 3.64839 10.8262 4.76128L13.4066 6.78468V7.46362C13.4066 8.07909 13.4154 8.15147 13.5004 8.2378C13.6529 8.39256 13.8524 8.38114 14.0049 8.2089C14.0956 8.10643 14.1105 8.03652 14.1105 7.71234V7.33505L14.6539 7.76262C15.421 8.36614 15.4807 8.35771 16.0632 7.56381C16.3245 7.20767 16.3842 7.09358 16.3842 6.95001C16.3842 6.85301 16.3553 6.73825 16.3199 6.69501C16.2316 6.58711 8.73773 0.706946 8.58137 0.6229C8.39339 0.521853 7.95891 0.536329 7.76924 0.649947C7.68238 0.701994 7.17845 1.08394 6.64937 1.49875C6.1203 1.9136 5.66104 2.27364 5.62876 2.29888C5.58375 2.33407 5.5701 2.29326 5.5701 2.1235C5.5701 1.93817 5.58727 1.89541 5.67568 1.86031C5.85278 1.79012 5.98618 1.6287 6.04273 1.41627C6.12067 1.12332 6.0783 0.48614 5.96826 0.297142C5.80027 0.00857411 5.74321 -0.0001877 4.03795 2.77353e-06C2.61927 0.000145629 2.48515 0.00719315 2.35372 0.0885255ZM5.3824 0.952181V1.19027H4.0685H2.7546V0.952181V0.714089H4.0685H5.3824V0.952181ZM8.72454 1.61127C10.9092 3.30272 15.5439 6.97073 15.5528 7.01534C15.559 7.04606 15.5062 7.1401 15.4355 7.22439L15.307 7.37763L11.8581 4.6649C9.96111 3.17292 8.36158 1.93912 8.30348 1.92322C8.24539 1.90726 8.15041 1.90688 8.09232 1.92241C8.03423 1.93788 6.59306 3.0463 4.88969 4.38552C3.18631 5.72474 1.63056 6.94625 1.43249 7.10001L1.07229 7.37953L0.928323 7.19506L0.784358 7.01058L4.38219 4.18376C7.82349 1.47994 8.1308 1.24342 8.20836 1.23956C8.22699 1.23865 8.45927 1.40594 8.72454 1.61127ZM4.86622 2.40316V2.90178L4.08023 3.52139C3.64791 3.86219 3.27838 4.14138 3.25904 4.14181C3.23971 4.14224 3.22385 3.63905 3.22385 3.02358V1.90455H4.04504H4.86622V2.40316ZM6.12724 5.41327C6.05943 5.45593 5.96441 5.55717 5.91608 5.63817C5.83255 5.77812 5.82819 5.93974 5.82819 8.88275C5.82819 12.3305 5.80923 12.1258 6.14746 12.3351C6.28946 12.4229 6.39664 12.4279 8.16421 12.428C10.2072 12.4282 10.2538 12.4226 10.4433 12.1525C10.544 12.0089 10.5442 12.0046 10.5442 8.88065C10.5442 6.07036 10.5364 5.73912 10.4674 5.62069C10.2985 5.33046 10.3184 5.33294 8.19067 5.33436C6.48016 5.33546 6.23592 5.34479 6.12724 5.41327ZM7.8225 6.78544V7.52353H7.18901H6.55552V6.78544V6.04736H7.18901H7.8225V6.78544ZM9.84028 6.78678V7.52619L9.19506 7.51296L8.54984 7.49972L8.53689 6.77354L8.52394 6.04736H9.18211H9.84028V6.78678ZM7.8225 8.88065V9.5235H7.18901H6.55552V8.88065V8.2378H7.18901H7.8225V8.88065ZM9.84028 8.88065V9.5235H9.18333H8.52638V8.88065V8.2378H9.18333H9.84028V8.88065ZM7.8225 10.9759V11.714H7.18901H6.55552V10.9759V10.2378H7.18901H7.8225V10.9759ZM9.84028 10.9772V11.7166L9.19506 11.7034L8.54984 11.6901L8.5367 11.0258C8.52952 10.6604 8.53412 10.3336 8.54698 10.2996C8.56453 10.2531 8.72806 10.2378 9.20533 10.2378H9.84028V10.9772ZM16.606 10.8957C19.8995 13.4739 23.0185 15.9289 23.0927 16.0015C23.1812 16.0882 23.1809 16.0922 23.0692 16.2586C23.0069 16.3515 22.9416 16.4277 22.9242 16.4278C22.9069 16.428 21.3368 15.2066 19.4352 13.7136C17.5336 12.2206 15.9291 10.9866 15.8696 10.9715C15.8102 10.9563 15.7152 10.9691 15.6586 10.9999C15.602 11.0306 14.016 12.2646 12.1342 13.742C10.2524 15.2194 8.69718 16.4274 8.67822 16.4265C8.65922 16.4255 8.58616 16.3478 8.51591 16.2538L8.38809 16.0828L8.49245 16.0007C13.2203 12.2813 15.7326 10.333 15.8006 10.333C15.8482 10.333 16.2106 10.5863 16.606 10.8957ZM3.82289 19.5708C4.09482 19.6895 4.42851 20.0222 4.58223 20.328C4.71541 20.5929 4.84769 20.6406 5.17889 20.5429C5.60661 20.4167 6.01467 20.559 6.26145 20.9203C6.36815 21.0766 6.39101 21.1611 6.39115 21.4L6.39129 21.69L5.98539 21.7138C5.67488 21.732 5.5563 21.759 5.48094 21.8284C5.36579 21.9343 5.34993 22.1743 5.44899 22.3119C5.51285 22.4006 5.60712 22.4052 7.78351 22.4281L10.0514 22.4519L10.065 22.8686L10.0786 23.2852H5.43115H0.783747V22.8567V22.4281H2.47305C4.0998 22.4281 4.16582 22.4246 4.2562 22.3329C4.39594 22.1911 4.38135 21.9362 4.2264 21.8125C4.10693 21.7172 4.05001 21.7138 2.5371 21.7138H0.971448V21.5874C0.971448 21.3947 1.18862 21.145 1.46346 21.0216C1.71479 20.9088 1.72229 20.8982 1.86312 20.4519C2.12102 19.6348 3.03164 19.2253 3.82289 19.5708ZM14.5562 19.626C14.3681 19.7304 14.3451 19.8104 14.3451 20.3594C14.3451 20.8256 14.3571 20.907 14.4424 21.0169C14.5129 21.1079 14.5828 21.1424 14.697 21.1424C14.8112 21.1424 14.8811 21.1079 14.9517 21.0169C15.0371 20.9068 15.0488 20.8269 15.0475 20.3622C15.0459 19.812 15.0217 19.7305 14.8292 19.6264C14.7049 19.5592 14.6766 19.5592 14.5562 19.626ZM8.29175 19.9115C8.89079 20.1961 9.24297 20.8373 9.15738 21.4876L9.12758 21.7138H8.1293H7.13097L7.10896 21.3686C7.08451 20.9855 6.96631 20.6664 6.7428 20.38L6.59963 20.1966L6.8191 20.0434C6.93975 19.9591 7.12515 19.8616 7.23106 19.8266C7.52429 19.7297 7.98702 19.7668 8.29175 19.9115Z" fill="#263238"/>
</svg>
