<svg width="53" height="51" viewBox="0 0 53 51" fill="none" xmlns="http://www.w3.org/2000/svg">
<path fill-rule="evenodd" clip-rule="evenodd" d="M27.421 0.137022C26.7058 0.332666 26.304 0.583485 25.7597 1.17404C24.3455 2.70814 24.576 5.10588 26.2566 6.34599C26.5224 6.54215 26.9145 6.75674 27.1279 6.82299L27.5161 6.94359V8.25886V9.57423L26.7656 9.75611C24.3617 10.3387 21.4523 11.7632 19.2866 13.418C18.4951 14.0228 16.7727 15.68 16.0979 16.486L15.578 17.1071L11.6178 17.1588L7.65757 17.2106L7.39216 17.4601C6.86992 17.9508 6.98658 18.8321 7.6113 19.1168C7.77102 19.1896 8.94955 19.2291 10.9585 19.2291C12.6638 19.2291 14.0591 19.2463 14.0591 19.2672C14.0591 19.2882 13.8094 19.7889 13.5043 20.38C13.1992 20.9711 12.7953 21.8624 12.6067 22.3605L12.2637 23.2662H6.43867H0.613644L0.345539 23.4992C-0.00817438 23.8065 -0.109309 24.4071 0.131054 24.7738C0.495843 25.3307 0.561162 25.3366 6.35597 25.3366H11.7023L11.6398 25.5695C11.5668 25.8414 11.2909 27.8122 11.2049 28.6749L11.1457 29.2701H8.76716C6.18185 29.2701 5.93155 29.3163 5.6945 29.8366C5.53809 30.1798 5.53809 30.4308 5.6945 30.774C5.93217 31.2957 6.17844 31.3405 8.81156 31.3405H11.2343L11.3036 32.1701C11.3695 32.9613 11.7392 35.0179 11.8465 35.1917C11.8746 35.237 10.3793 35.2741 8.52379 35.2741C4.8641 35.2741 4.61918 35.3065 4.27168 35.8368C4.03132 36.2035 4.13245 36.8041 4.48616 37.1115C4.75385 37.3441 4.75893 37.3444 8.63569 37.3444H12.5171L12.6318 37.6732C12.8409 38.2732 13.8241 40.2013 14.3681 41.0785C16.3809 44.3239 19.4081 47.0377 22.9097 48.7357C27.9919 51.2002 33.4461 51.532 38.9546 49.7114C39.8545 49.414 42.3786 48.2101 43.1801 47.696C44.02 47.1573 44.1688 46.4117 43.5418 45.8841C43.1235 45.532 42.6844 45.5508 42.059 45.9473C41.0832 46.5663 39.3128 47.3939 38.1036 47.7964C32.519 49.6556 26.4163 48.8354 21.564 45.5737C13.8192 40.3675 11.0708 30.3102 15.0857 21.8688C17.6461 16.4859 22.4315 12.7691 28.4456 11.4925C29.6293 11.2411 29.9437 11.2173 32.0708 11.2173C34.1996 11.2173 34.5117 11.241 35.7 11.4933C37.5997 11.8965 38.7632 12.3029 40.5073 13.1727C42.2494 14.0414 43.4669 14.8743 44.8218 16.1238C51.3214 22.1178 52.7793 31.9786 48.2859 39.5532C47.7094 40.5248 47.6376 40.7698 47.8081 41.1814C48.0204 41.6939 48.7646 41.9541 49.2599 41.6891C49.5243 41.5476 50.0634 40.6914 50.743 39.334C54.2856 32.2575 53.5466 23.8215 48.8275 17.4694C48.0302 16.3961 46.2682 14.5633 45.2173 13.7141C42.9977 11.9205 40.2256 10.506 37.531 9.79223L36.6255 9.55229L36.6272 8.25741L36.629 6.96253L37.2033 6.71389C37.9453 6.39257 38.639 5.71227 38.9847 4.96675C39.3737 4.12786 39.3757 2.96931 38.9895 2.13663C38.611 1.32093 38.0629 0.758012 37.2638 0.364446L36.5787 0.0269847L32.2803 0.00524642C28.7528 -0.0125583 27.8813 0.0110433 27.421 0.137022ZM36.1069 2.11262C36.5501 2.20123 37.1157 2.77822 37.2001 3.22769C37.289 3.70158 37.1062 4.2202 36.7199 4.59047L36.4051 4.89222L32.1594 4.92141C28.0345 4.94988 27.904 4.9446 27.5707 4.73871C26.9094 4.33003 26.7023 3.39983 27.13 2.75959C27.6029 2.05175 27.6422 2.04585 31.9285 2.04575C34.0422 2.04564 35.9224 2.07577 36.1069 2.11262ZM34.5552 8.07532V9.13636H32.0708H29.5864V8.07532V7.01429H32.0708H34.5552V8.07532ZM30.104 14.0195C27.9659 14.3624 26.3868 14.8614 24.7212 15.7203C20.3864 17.9556 17.3726 21.9363 16.3159 26.8222C15.9827 28.3626 15.986 31.5354 16.3222 33.1002C17.262 37.4725 19.7569 41.1165 23.4272 43.4773C28.6733 46.8516 35.4683 46.8516 40.7144 43.4773C44.3847 41.1165 46.8796 37.4725 47.8194 33.1002C48.1556 31.5354 48.1589 28.3626 47.8257 26.8222C46.4001 20.2302 41.2864 15.2633 34.78 14.1511C33.6819 13.9633 30.936 13.8861 30.104 14.0195ZM34.2964 16.1739C40.339 17.1654 44.9631 21.8666 45.9054 27.9762C46.0987 29.2304 46.0448 31.5267 45.7946 32.6862C45.1852 35.5107 43.9293 37.8212 41.9114 39.8308C39.8655 41.8681 37.6335 43.0806 34.8382 43.6731C33.4345 43.9706 30.9013 43.9975 29.5585 43.7292C27.6177 43.3414 25.7033 42.5418 24.1001 41.449C23.6731 41.1579 22.8316 40.4298 22.2302 39.8308C20.2123 37.8212 18.9564 35.5107 18.347 32.6862C18.0968 31.5267 18.0429 29.2304 18.2362 27.9762C19.1717 21.9107 23.7988 17.1821 29.7853 16.1736C30.8775 15.9895 33.1742 15.9897 34.2964 16.1739ZM31.5646 18.0279C31.1829 18.2394 31.0433 18.5958 31.0393 19.3685C31.0352 20.1551 31.2153 20.5855 31.6269 20.7731C31.9594 20.9245 32.232 20.9144 32.5734 20.7379C32.9743 20.5305 33.106 20.1672 33.106 19.2681C33.106 18.5446 33.0842 18.4668 32.8034 18.186C32.4673 17.8499 31.9945 17.7895 31.5646 18.0279ZM38.9546 21.7587C38.7838 21.8364 37.4844 23.0647 36.0668 24.4882L33.4897 27.0764L33.0778 26.9311C32.571 26.7523 31.5226 26.7551 31.0356 26.9365L30.6733 27.0716L29.3705 25.79C28.1731 24.6122 28.0364 24.5084 27.6815 24.5084C27.1875 24.5084 26.9362 24.6461 26.7408 25.0239C26.4168 25.6506 26.4922 25.7949 27.8755 27.1929L29.1665 28.4976L29.0142 29.0039C28.6858 30.0949 28.9379 31.2379 29.6971 32.1004C30.945 33.5181 33.1966 33.5181 34.4445 32.1004C35.2041 31.2374 35.4558 30.0949 35.1269 29.002L34.974 28.4941L37.663 25.798C40.2974 23.1568 40.3521 23.0934 40.3521 22.6807C40.3521 22.3635 40.2846 22.1919 40.0792 21.9864C39.9291 21.8363 39.7465 21.7135 39.6735 21.7135C39.6005 21.7135 39.4788 21.6919 39.403 21.6655C39.3271 21.6392 39.1254 21.6811 38.9546 21.7587ZM32.8575 29.208C33.2712 29.6217 33.321 30.0694 33.0101 30.5793C32.425 31.5387 30.9338 31.056 30.9325 29.9068C30.9319 29.376 31.4952 28.8561 32.0708 28.8561C32.4272 28.8561 32.569 28.9195 32.8575 29.208ZM20.3213 29.2095C19.8439 29.6868 19.8777 30.3648 20.3983 30.7534C20.6973 30.9767 21.5128 31.0917 22.0642 30.9883C22.9322 30.8254 23.2628 29.8661 22.6588 29.2622C22.3712 28.9745 22.3122 28.9596 21.4637 28.9596C20.6582 28.9596 20.5468 28.9839 20.3213 29.2095ZM41.4828 29.2622C41.2591 29.4859 41.1802 29.6631 41.1802 29.9419C41.1802 30.7646 41.6466 31.0708 42.8106 31.012C43.5283 30.9758 43.6037 30.9495 43.8823 30.6376C44.2045 30.277 44.2551 29.9576 44.0584 29.526C43.8708 29.114 43.4663 28.9596 42.5748 28.9596C41.8403 28.9596 41.7643 28.9806 41.4828 29.2622ZM0.635693 35.4259C-0.390768 35.8698 -0.104651 37.3444 1.00793 37.3444C1.99961 37.3444 2.43314 36.0647 1.61609 35.5491C1.23091 35.306 0.984644 35.2751 0.635693 35.4259ZM31.7897 39.0745C31.6635 39.0982 31.4423 39.2579 31.298 39.4294C31.0657 39.7055 31.0356 39.8346 31.0356 40.5597C31.0356 41.3149 31.0586 41.4039 31.333 41.7111C31.6804 42.0999 32.1802 42.1582 32.6313 41.8626C32.9885 41.6286 33.106 41.3046 33.106 40.5534C33.106 40.2192 33.0614 39.8286 33.0071 39.6856C32.8486 39.269 32.2782 38.9826 31.7897 39.0745ZM45.4163 43.3403C45.0198 43.7369 45.0068 44.2405 45.3818 44.686C45.6025 44.9483 45.7263 45.0045 46.0833 45.0045C46.5976 45.0045 46.901 44.817 47.078 44.3895C47.4963 43.3797 46.1972 42.5595 45.4163 43.3403Z" fill="#89B948"/>
</svg>
