<svg width="40" height="34" viewBox="0 0 40 34" fill="none" xmlns="http://www.w3.org/2000/svg">
<path fill-rule="evenodd" clip-rule="evenodd" d="M2.87564 1.62921V3.25841L1.46383 6.69427C0.135541 9.92668 0.0494441 10.1669 0.00940614 10.7511C-0.104139 12.407 0.821269 14.2075 2.1914 14.9966L2.48464 15.1656V24.5828V34H20.0012H37.5178V24.5828V15.1656L37.8111 14.9966C39.1866 14.2044 40.1111 12.3994 39.9892 10.7438C39.9455 10.1508 39.864 9.9266 38.5358 6.74613L37.1286 3.37671L37.1277 1.68836L37.1268 0H20.0012H2.87564V1.62921ZM35.4065 2.52283V3.3379H19.9621H4.51782V2.52283V1.70776H19.9621H35.4065V2.52283ZM8.49455 7.04452C8.33096 8.14385 8.16964 9.2355 8.13609 9.47032L8.07494 9.89726L5.00703 9.9176L1.93913 9.93786L2.07504 9.59964C2.14979 9.41365 2.59803 8.31354 3.07114 7.15498L3.93133 5.04846L6.36167 5.04706L8.79195 5.04566L8.49455 7.04452ZM15.6982 5.25913C15.697 5.37658 15.6452 6.39829 15.583 7.52968C15.5208 8.66107 15.469 9.66532 15.4678 9.76142L15.4657 9.93607H12.6114C11.0416 9.93607 9.75731 9.9273 9.75747 9.91667C9.7577 9.90603 9.91606 8.83363 10.1094 7.53364C10.3028 6.23372 10.4609 5.14207 10.4609 5.10784C10.4609 5.07369 11.6398 5.04566 13.0806 5.04566H15.7003L15.6982 5.25913ZM22.7316 7.35502C22.7851 8.62521 22.846 9.72548 22.867 9.80023C22.9028 9.92784 22.7292 9.93607 19.9996 9.93607H17.0941L17.1369 9.64498C17.1604 9.48491 17.2222 8.38449 17.2742 7.19977L17.3688 5.04566H20.0016H22.6344L22.7316 7.35502ZM29.5415 5.11203C29.5415 5.14859 29.6999 6.22883 29.8934 7.51268C30.087 8.79645 30.2453 9.86691 30.2453 9.89144C30.2453 9.95866 24.537 9.94508 24.5355 9.87785C24.5348 9.84587 24.4824 8.84155 24.4192 7.64612C24.3559 6.45069 24.3037 5.37658 24.3031 5.25913L24.3022 5.04566H26.9219C28.3627 5.04566 29.5415 5.07555 29.5415 5.11203ZM37.0609 7.47301L38.0507 9.89726L35.0329 9.9176C32.9416 9.93165 31.9992 9.91224 31.9631 9.85433C31.9345 9.80838 31.8524 9.36258 31.7805 8.86368C31.7087 8.36478 31.5512 7.30169 31.4307 6.50114L31.2114 5.04566L33.6413 5.04721L36.0712 5.04884L37.0609 7.47301ZM7.75612 11.9349C7.65657 12.4806 6.81226 13.4264 6.1209 13.7667C5.30286 14.1695 4.31614 14.1844 3.45634 13.8068C2.74614 13.495 1.9977 12.6272 1.77545 11.858L1.7136 11.6438H4.76141H7.8093L7.75612 11.9349ZM15.3668 11.9498C15.3165 12.3217 14.7582 13.0735 14.2416 13.4651C13.1859 14.2653 11.6305 14.2827 10.551 13.5065C10.1022 13.1837 9.45023 12.3512 9.44702 12.0965C9.44084 11.6172 9.26278 11.6438 12.4737 11.6438H15.4081L15.3668 11.9498ZM22.9728 11.9279C22.9728 12.4289 22.1145 13.4063 21.3468 13.7795C20.504 14.1892 19.5141 14.1913 18.6589 13.7853C17.9049 13.4273 17.0297 12.4295 17.0297 11.9279V11.6438H20.0012H22.9728V11.9279ZM30.5555 11.9737C30.5533 12.2513 30.4906 12.3811 30.1608 12.791C29.4371 13.6907 28.6874 14.0684 27.6256 14.0684C26.5313 14.0684 25.7856 13.6758 25.0263 12.6997C24.7153 12.3 24.615 12.1066 24.615 11.9074V11.6438H27.5865H30.5581L30.5555 11.9737ZM38.2223 11.8745C38.0075 12.6176 37.2312 13.506 36.5256 13.8158C35.6866 14.1842 34.692 14.1658 33.8816 13.7667C33.1902 13.4264 32.3459 12.4806 32.2464 11.9349L32.1932 11.6438H35.2411H38.2889L38.2223 11.8745ZM10.2521 15.2443C11.0349 15.6283 11.8059 15.7848 12.6505 15.7312C13.8375 15.6559 14.8022 15.2325 15.6903 14.3974L16.2007 13.9173L16.6822 14.3953C17.5085 15.2155 18.8297 15.758 20.0012 15.758C20.627 15.758 21.5501 15.5362 22.1247 15.2478C22.6381 14.9901 23.3519 14.4422 23.5892 14.1237L23.7658 13.8865L24.2959 14.3829C25.2065 15.2356 26.1581 15.6554 27.352 15.7312C28.6764 15.8153 29.8894 15.3695 30.9096 14.4237L31.487 13.8885L31.6629 14.1247C31.8995 14.4422 32.6138 14.9904 33.1266 15.2478C33.7166 15.5439 34.6292 15.758 35.3017 15.758H35.8757V24.0251V32.2922H35.0155H34.1553V24.8396V17.387L29.1701 17.407L24.1849 17.4269L24.1649 24.8596L24.145 32.2922H14.1359H4.12682V24.0251V15.758H4.7008C5.37324 15.758 6.2859 15.5439 6.87583 15.2478C7.38866 14.9904 8.10301 14.4422 8.33956 14.1247L8.51551 13.8885L9.09286 14.4237C9.45812 14.7623 9.884 15.0638 10.2521 15.2443ZM5.8472 23.21V29.032H14.1754H22.5036V23.21V17.3881H14.1754H5.8472V23.21ZM20.8614 23.21V27.3242H14.1754H7.48938V23.21V19.0959H14.1754H20.8614V23.21ZM32.5131 25.6941V32.2922H29.1896H25.8662V29.4305V26.5688L26.3988 26.5309C26.714 26.5086 27.0155 26.4384 27.1377 26.3589C27.4201 26.1753 27.5471 25.7742 27.4323 25.4287C27.3088 25.0573 27.0277 24.9018 26.3988 24.8572L25.8662 24.8193V21.9576V19.0959H29.1896H32.5131V25.6941ZM18.8674 19.9842C18.7383 20.0418 17.4451 21.2727 15.9935 22.7195C13.4097 25.2948 13.3543 25.3565 13.3543 25.6601C13.3543 26.0332 13.5242 26.2961 13.8533 26.4327C14.3644 26.6447 14.3998 26.6172 17.237 23.8024C19.3143 21.7415 19.9192 21.0977 19.9598 20.9043C20.0903 20.2833 19.4347 19.731 18.8674 19.9842ZM18.7759 23.3349C18.4012 23.5184 16.7504 25.2257 16.7014 25.4806C16.5792 26.1162 16.9794 26.5347 17.6553 26.4781C17.915 26.4563 19.8979 24.5096 19.9638 24.2117C20.0302 23.9115 19.821 23.4748 19.5421 23.3316C19.247 23.1802 19.0907 23.1808 18.7759 23.3349Z" fill="#89B948"/>
</svg>
