<svg width="29" height="29" viewBox="0 0 29 29" fill="none" xmlns="http://www.w3.org/2000/svg">
<path fill-rule="evenodd" clip-rule="evenodd" d="M11.1888 1.03451C11.0933 1.05764 10.9654 1.12138 10.9046 1.1761C10.68 1.37834 10.6504 1.55712 10.6504 2.71275C10.6504 3.31454 10.6346 3.80688 10.6153 3.80688C10.4757 3.80688 6.16333 4.57094 6.04826 4.61607C5.96789 4.64757 5.84334 4.74402 5.77141 4.83035C5.60761 5.02704 5.60292 5.267 5.74715 6.06873C5.80484 6.38953 5.83416 6.66749 5.81227 6.68641C5.79039 6.70538 4.89443 7.02399 3.82129 7.39456C1.26536 8.27703 1.26267 8.27815 1.11865 8.49408C1.05342 8.59192 1 8.74113 1 8.8257C1 8.98961 3.85472 17.0737 3.98361 17.2748C4.0858 17.4343 4.30613 17.4852 4.47614 17.3888C4.78232 17.2152 4.81818 17.3459 3.27559 13.012C2.48811 10.7995 1.84375 8.9764 1.84375 8.96078C1.84375 8.94517 1.98023 8.88394 2.14697 8.82468C3.01203 8.51742 5.98419 7.49395 5.98925 7.50157C5.99247 7.50647 6.65286 11.3952 7.4568 16.1433C8.41915 21.8268 8.94913 24.8307 9.00808 24.936C9.05734 25.0239 9.1888 25.1412 9.30018 25.1965C9.48111 25.2864 9.54007 25.2906 9.85247 25.2355C12.2862 24.8063 16.996 24.0033 17.0081 24.0156C17.0282 24.0359 8.4037 27.169 8.34896 27.1612C8.32649 27.158 7.62787 25.2428 6.7964 22.9051C5.96494 20.5674 5.25719 18.6104 5.22371 18.5562C4.98514 18.1701 4.41112 18.4462 4.53447 18.8877C4.59907 19.1189 7.54328 27.3766 7.64432 27.61C7.70344 27.7465 7.80279 27.8651 7.90098 27.9164C8.23183 28.0893 8.00893 28.1576 12.8125 26.4119C16.3955 25.1098 17.4665 24.7203 19.5098 23.976C21.532 23.2395 21.6932 23.1898 22.542 23.0418C23.4259 22.8878 23.4666 22.8856 25.4424 22.8849C27.6889 22.8841 27.7261 22.8785 27.9076 22.5113C27.9943 22.336 27.9998 21.7936 27.9999 13.4734L28 4.62199L27.8813 4.45605C27.7602 4.28659 24.6081 1.24255 24.398 1.09212C24.2949 1.01826 23.5745 1.0083 17.8223 1.00084C14.2693 0.996199 11.2842 1.01133 11.1888 1.03451ZM23.5176 3.19405C23.5477 4.77573 23.5644 4.84218 23.988 5.06855C24.2147 5.18973 24.252 5.19239 25.7143 5.19239H27.209V13.6387V22.085H19.3252H11.4414V18.0922V14.0994L11.3025 13.989C11.226 13.9282 11.1322 13.8785 11.094 13.8785C10.9546 13.8785 10.7661 14 10.7089 14.1267C10.6677 14.2182 10.6504 15.4396 10.6504 18.2605C10.6504 22.1845 10.6526 22.269 10.7582 22.4895C10.9565 22.9036 10.7498 22.8838 14.9298 22.8891L18.6396 22.8939L14.1715 23.6718C11.714 24.0997 9.69358 24.4392 9.68155 24.4264C9.65434 24.3973 6.49297 5.76701 6.47272 5.51639L6.45801 5.33414L8.38281 4.99933C9.44145 4.81521 10.3848 4.65034 10.479 4.63297L10.6504 4.60136V8.56666C10.6504 12.4975 10.6513 12.5331 10.7597 12.6723C10.8967 12.8483 11.1789 12.8648 11.3359 12.7062C11.44 12.601 11.4414 12.5285 11.4414 7.22628C11.4414 4.27092 11.4573 1.83683 11.4768 1.81717C11.4962 1.79751 14.2074 1.78754 17.5017 1.795L23.4912 1.80854L23.5176 3.19405ZM26.1965 3.89838L26.708 4.38954L25.5215 4.37798L24.335 4.36641L24.3207 3.22693L24.3064 2.08751L24.9958 2.74733C25.3749 3.11028 25.9153 3.62825 26.1965 3.89838ZM13.628 6.84142C13.3718 6.94726 13.2902 7.28111 13.471 7.48313C13.5662 7.58939 13.6216 7.5904 19.4086 7.5904H25.2502L25.3594 7.44999C25.5018 7.2672 25.4974 7.15039 25.3415 6.96724L25.2142 6.81771L19.4748 6.80737C16.3181 6.80172 13.687 6.81702 13.628 6.84142ZM13.4951 9.76694C13.3213 9.90917 13.3324 10.1814 13.5186 10.3432L13.6622 10.468H19.3784C23.4554 10.468 25.1315 10.4511 25.2232 10.4089C25.3485 10.3511 25.4687 10.1606 25.4687 10.0197C25.4687 9.98111 25.4195 9.88631 25.3594 9.80909L25.2502 9.66868H19.4327C13.8576 9.66868 13.6102 9.67278 13.4951 9.76694ZM13.5369 12.5596C13.3229 12.7238 13.3476 13.1693 13.5756 13.2577C13.6247 13.2768 16.2625 13.2923 19.4374 13.2923H25.2099L25.3393 13.1615C25.5043 12.9948 25.5043 12.7905 25.3393 12.6238L25.2099 12.493H19.4168C14.8638 12.493 13.6051 12.5073 13.5369 12.5596ZM13.5186 15.4421C13.3324 15.604 13.3213 15.8762 13.4951 16.0184C13.6102 16.1126 13.8576 16.1167 19.4327 16.1167H25.2502L25.3594 15.9762C25.4195 15.899 25.4687 15.8042 25.4687 15.7656C25.4687 15.6247 25.3485 15.4342 25.2232 15.3765C25.1315 15.3343 23.4554 15.3173 19.3784 15.3173H13.6622L13.5186 15.4421ZM13.471 18.3022C13.3394 18.4492 13.3486 18.7071 13.4907 18.8507L13.6065 18.9676H19.4103H25.2142L25.3415 18.8181C25.4974 18.6349 25.5018 18.5181 25.3594 18.3353L25.2502 18.1949H19.4086C13.6216 18.1949 13.5662 18.1959 13.471 18.3022Z" fill="#89B948" stroke="#89B948"/>
</svg>
