<svg width="23" height="21" viewBox="0 0 23 21" fill="none" xmlns="http://www.w3.org/2000/svg">
<path fill-rule="evenodd" clip-rule="evenodd" d="M16.8762 0.0497432C16.3842 0.214495 16.0405 0.514433 15.8335 0.959849L15.7076 1.23067L15.6957 8.36003L15.6838 15.4893L14.9088 14.7156C13.98 13.7883 13.8186 13.6897 13.2357 13.6935C12.735 13.6967 12.4286 13.8221 12.0897 14.1625C11.7498 14.5039 11.6254 14.8112 11.6237 15.3135C11.6214 15.9787 11.5361 15.8705 14.1043 18.459C16.7155 21.091 16.603 21.0023 17.3256 20.999C18.031 20.9958 17.9521 21.0569 20.3739 18.636C21.5313 17.4789 22.5651 16.417 22.6713 16.2761C23.2859 15.4609 23.0076 14.2889 22.0952 13.8495C21.6287 13.6248 21.1085 13.6275 20.6515 13.857C20.5526 13.9067 20.1231 14.2942 19.6971 14.7183L18.9225 15.4893L18.9106 8.33747L18.8987 1.18554L18.7755 0.933895C18.6149 0.605746 18.3051 0.294388 17.9903 0.144803C17.6858 0.00013735 17.1587 -0.0448196 16.8762 0.0497432ZM0.826026 3.49282C0.218294 3.7093 -0.139595 4.46472 0.068046 5.09267C0.16508 5.38598 0.460047 5.71742 0.755239 5.86484L0.966026 5.9701L7.56155 5.98211L14.1571 5.99411V4.70697V3.41984L7.58402 3.4234C1.94369 3.42647 0.984723 3.43631 0.826026 3.49282ZM0.885262 8.63059C0.349126 8.82269 0.000719997 9.30711 8.93726e-07 9.86148C-0.000628322 10.3152 0.331058 10.8187 0.763779 11.0212C0.965846 11.1157 0.971914 11.1158 7.56155 11.1278L14.1571 11.1398V9.85264V8.5655L7.60649 8.56749C2.21416 8.56911 1.02576 8.58026 0.885262 8.63059ZM0.885262 13.7762C0.11308 14.0529 -0.223325 14.9176 0.168631 15.6184C0.241485 15.7486 0.385845 15.9207 0.489441 16.0007C0.870251 16.2949 0.670835 16.284 5.67647 16.284H10.2132L10.1824 16.1373C10.0029 15.2824 10.0704 14.5521 10.3869 13.9274C10.4335 13.8352 10.4717 13.7489 10.4717 13.7355C10.4717 13.7221 8.35315 13.7121 5.76379 13.7131C1.92149 13.7148 1.02454 13.7264 0.885262 13.7762Z" fill="#89B948"/>
</svg>
