<svg width="265" height="158" viewBox="0 0 265 158" fill="none" xmlns="http://www.w3.org/2000/svg">
<path d="M113.6 134.899C110.1 134.899 107.3 132.099 107.3 128.599C107.3 125.099 110.1 122.299 113.6 122.299C117.1 122.299 119.9 125.099 119.9 128.599C119.9 132.099 117.1 134.899 113.6 134.899ZM113.6 125.899C112.1 125.899 110.8 127.099 110.8 128.699C110.8 130.199 112 131.499 113.6 131.499C115.1 131.499 116.4 130.299 116.4 128.699C116.4 127.099 115.1 125.899 113.6 125.899Z" fill="#CCE70B"/>
<path d="M133 144.2C129.5 144.2 126.7 141.4 126.7 137.9C126.7 134.4 129.5 131.6 133 131.6C136.5 131.6 139.3 134.4 139.3 137.9C139.3 141.4 136.4 144.2 133 144.2ZM133 135.2C131.5 135.2 130.2 136.4 130.2 138C130.2 139.5 131.4 140.8 133 140.8C134.6 140.8 135.8 139.6 135.8 138C135.7 136.4 134.5 135.2 133 135.2Z" fill="#FF8000"/>
<path d="M150.2 133.2C146.7 133.2 143.9 130.4 143.9 126.9C143.9 123.4 146.7 120.6 150.2 120.6C153.7 120.6 156.5 123.4 156.5 126.9C156.5 130.3 153.7 133.2 150.2 133.2ZM150.2 124.1C148.7 124.1 147.4 125.3 147.4 126.9C147.4 128.5 148.6 129.7 150.2 129.7C151.8 129.7 153 128.5 153 126.9C153 125.3 151.8 124.1 150.2 124.1Z" fill="#CCE70B"/>
<path d="M101.6 63.8996C100.4 60.0996 96.8999 51.7996 91.0999 44.5996C84.0999 35.9996 76.1999 31.6996 67.4999 31.6996H29.3999V26.0996H67.5999C90.8999 26.0996 104 52.1996 107.1 62.2996L101.6 63.8996Z" fill="#7BBB2B"/>
<path d="M92.5001 98.6992H77.6001V92.9992H92.5001C98.4001 92.9992 102.9 80.0992 104.1 74.1992L109.6 75.2992C109.4 76.1992 105 98.6992 92.5001 98.6992Z" fill="#7BBB2B"/>
<path d="M99.9998 55.2996H41.7998V49.5996H96.9998L99.9998 55.2996Z" fill="#7BBB2B"/>
<path d="M106.6 71.5H58.2998V77.1H106.6V71.5Z" fill="#7BBB2B"/>
<path d="M23.4 36.3C19.3 36.3 16 33 16 28.9C16 24.8 19.3 21.5 23.4 21.5C27.5 21.5 30.8 24.8 30.8 28.9C30.8 33 27.5 36.3 23.4 36.3ZM23.4 27.2C22.5 27.2 21.7 28 21.7 28.9C21.7 29.8 22.5 30.6 23.4 30.6C24.3 30.6 25.1 29.8 25.1 28.9C25.1 28 24.3 27.2 23.4 27.2Z" fill="#FEA621"/>
<path d="M71.6002 103.2C67.5002 103.2 64.2002 99.9004 64.2002 95.8004C64.2002 91.7004 67.5002 88.4004 71.6002 88.4004C75.7002 88.4004 79.0002 91.7004 79.0002 95.8004C79.0002 99.9004 75.7002 103.2 71.6002 103.2ZM71.6002 94.2004C70.7002 94.2004 69.9002 95.0004 69.9002 95.9004C69.9002 96.8004 70.7002 97.6004 71.6002 97.6004C72.5002 97.6004 73.3002 96.8004 73.3002 95.9004C73.3002 95.0004 72.6002 94.2004 71.6002 94.2004Z" fill="#FEA621"/>
<path d="M52.4 81.7004C48.3 81.7004 45 78.4004 45 74.3004C45 70.2004 48.3 66.9004 52.4 66.9004C56.5 66.9004 59.8 70.2004 59.8 74.3004C59.7 78.4004 56.4 81.7004 52.4 81.7004ZM52.4 72.6004C51.5 72.6004 50.7 73.4004 50.7 74.3004C50.7 75.2004 51.5 76.0004 52.4 76.0004C53.3 76.0004 54.1 75.2004 54.1 74.3004C54.1 73.4004 53.3 72.6004 52.4 72.6004Z" fill="#FEA621"/>
<path d="M35.7999 59.8C31.6999 59.8 28.3999 56.5 28.3999 52.4C28.3999 48.3 31.6999 45 35.7999 45C39.8999 45 43.1999 48.3 43.1999 52.4C43.1999 56.5 39.8999 59.8 35.7999 59.8ZM35.7999 50.7C34.8999 50.7 34.0999 51.5 34.0999 52.4C34.0999 53.3 34.8999 54.1 35.7999 54.1C36.6999 54.1 37.4999 53.3 37.4999 52.4C37.4999 51.5 36.7999 50.7 35.7999 50.7Z" fill="#FEA621"/>
<path d="M241.3 36.3C237.2 36.3 233.9 33 233.9 28.9C233.9 24.8 237.2 21.5 241.3 21.5C245.4 21.5 248.7 24.8 248.7 28.9C248.7 33 245.4 36.3 241.3 36.3ZM241.3 27.2C240.4 27.2 239.6 28 239.6 28.9C239.6 29.8 240.4 30.6 241.3 30.6C242.2 30.6 243 29.8 243 28.9C243 28 242.3 27.2 241.3 27.2Z" fill="#FEA621"/>
<path d="M193.1 103.2C189 103.2 185.7 99.9004 185.7 95.8004C185.7 91.7004 189 88.4004 193.1 88.4004C197.2 88.4004 200.5 91.7004 200.5 95.8004C200.5 99.9004 197.2 103.2 193.1 103.2ZM193.1 94.2004C192.2 94.2004 191.4 95.0004 191.4 95.9004C191.4 96.8004 192.2 97.6004 193.1 97.6004C194 97.6004 194.8 96.8004 194.8 95.9004C194.8 95.0004 194.1 94.2004 193.1 94.2004Z" fill="#FEA621"/>
<path d="M212.4 81.7004C208.3 81.7004 205 78.4004 205 74.3004C205 70.2004 208.3 66.9004 212.4 66.9004C216.5 66.9004 219.8 70.2004 219.8 74.3004C219.7 78.4004 216.4 81.7004 212.4 81.7004ZM212.4 72.6004C211.5 72.6004 210.7 73.4004 210.7 74.3004C210.7 75.2004 211.5 76.0004 212.4 76.0004C213.3 76.0004 214.1 75.2004 214.1 74.3004C214.1 73.4004 213.3 72.6004 212.4 72.6004Z" fill="#FEA621"/>
<path d="M228.9 59.8C224.8 59.8 221.5 56.5 221.5 52.4C221.5 48.3 224.8 45 228.9 45C233 45 236.3 48.3 236.3 52.4C236.3 56.5 233 59.8 228.9 59.8ZM228.9 50.7C228 50.7 227.2 51.5 227.2 52.4C227.2 53.3 228 54.1 228.9 54.1C229.8 54.1 230.6 53.3 230.6 52.4C230.6 51.5 229.8 50.7 228.9 50.7Z" fill="#FEA621"/>
<path d="M162.1 63.8996L157.7 62.2996C160.8 52.1996 173.9 26.0996 197.2 26.0996H235.4V31.6996H197.2C188.5 31.6996 180.6 36.0996 173.6 44.5996C167.8 51.7996 163.3 60.1996 162.1 63.8996Z" fill="#7BBB2B"/>
<path d="M187.1 98.6992H172.2C159.7 98.6992 155.3 76.1992 155.1 75.2992L160.6 74.1992C161.7 80.0992 166.2 92.9992 172.2 92.9992H187.1V98.6992Z" fill="#7BBB2B"/>
<path d="M223 55.2996H165.8L167.8 49.5996H223V55.2996Z" fill="#7BBB2B"/>
<path d="M206.4 71.5H158.1V77.1H206.4V71.5Z" fill="#7BBB2B"/>
<path d="M133 111.8C122.7 111.8 113.4 101.3 108.1 83.6996C106.1 77.0996 104.5 72.2996 103.2 68.3996C99.9002 58.5996 98.5002 54.4996 98.6002 43.9996C98.6002 37.4996 99.3002 29.9996 103.9 23.9996C109.3 16.9996 118.9 13.5996 133.1 13.5996C145.5 13.5996 154.6 16.5996 160.2 22.4996C164.3 26.7996 166.5 32.5996 166.5 39.3996C166.5 51.2996 164.5 58.0996 161.8 67.5996C160.7 71.2996 159.5 75.5996 158.2 80.6996C154.4 95.6996 144.9 111.8 133 111.8ZM133 19.2996C106.4 19.2996 104.2 31.4996 104.1 43.9996C104.1 53.5996 105.3 57.0996 108.5 66.5996C109.8 70.4996 111.5 75.3996 113.5 82.0996C118 96.8996 125.5 106.1 133 106.1C140.4 106.1 148.8 94.5996 152.6 79.3996C153.9 74.0996 155.1 69.7996 156.2 65.9996C158.9 56.5996 160.7 50.3996 160.7 39.3996C160.7 26.1996 151.1 19.2996 133 19.2996Z" fill="#7BBB2B"/>
<path d="M113.5 53.6996C109.8 53.6996 106.8 50.8996 106.2 46.6996C105.9 45.0996 105.4 43.4996 105 42.4996C104.5 41.1996 104 39.7996 105.3 38.6996C105.9 38.1996 106.9 37.8996 107.9 38.5996C109.5 39.5996 110 39.4996 111.2 39.2996C111.8 39.1996 112.6 39.0996 113.5 39.0996C117.6 39.0996 120.9 42.3996 120.9 46.4996C120.9 50.5996 117.6 53.6996 113.5 53.6996ZM109.9 43.5996C110.1 44.3996 110.3 45.1996 110.4 45.9996C110.6 47.5996 111.6 49.3996 113.5 49.3996C115.2 49.3996 116.6 47.9996 116.6 46.2996C116.6 44.5996 115.2 43.1996 113.5 43.1996C112.9 43.1996 112.4 43.2996 111.9 43.3996C111.3 43.4996 110.6 43.5996 109.9 43.5996Z" fill="black"/>
<path d="M150.9 53.6998C146.8 53.6998 143.5 50.3998 143.5 46.2998C143.5 42.1998 146.8 38.8998 150.9 38.8998C151.8 38.8998 152.6 38.9998 153.2 39.0998C154.4 39.2998 154.9 39.3998 156.5 38.3998C157.5 37.7998 158.6 38.0998 159.1 38.4998C160.4 39.4998 159.9 40.8998 159.4 42.2998C159 43.2998 158.4 44.8998 158.2 46.4998C157.6 50.8998 154.6 53.6998 150.9 53.6998ZM150.9 43.1998C149.2 43.1998 147.8 44.5998 147.8 46.2998C147.8 47.9998 149.2 49.3998 150.9 49.3998C152.8 49.3998 153.8 47.4998 154 45.9998C154.1 45.0998 154.3 44.2998 154.5 43.5998C153.7 43.5998 153.1 43.4998 152.5 43.3998C152 43.2998 151.5 43.1998 150.9 43.1998Z" fill="black"/>
<path d="M132.9 73.7002C131.5 73.7002 130.2 72.9002 129.6 71.7002C128 68.5002 126.2 66.5002 124.7 64.6002C122.5 62.0002 120.7 59.8002 120.5 56.2002C120.2 49.4002 125.6 43.5002 132.4 43.2002C138.1 42.9002 143.3 46.7002 145.1 52.4002C146.8 57.8002 144.1 61.2002 141.1 64.8002C139.5 66.7002 137.7 68.9002 136.1 71.8002C135.5 72.9002 134.3 73.7002 132.9 73.7002ZM133 47.4002C132.9 47.4002 132.7 47.4002 132.6 47.4002C128.1 47.6002 124.6 51.5002 124.7 56.0002C124.8 58.1002 125.8 59.3002 127.9 61.8002C129.4 63.5002 131.2 65.7002 132.9 68.8002C134.5 66.0002 136.3 63.8002 137.8 62.0002C140.8 58.3002 142 56.7002 141 53.6002C139.9 49.9002 136.6 47.4002 133 47.4002Z" fill="#FE330A"/>
<path d="M120.701 103.974L113.488 122.414L118.703 124.454L125.916 106.014L120.701 103.974Z" fill="#7BBB2B"/>
<path d="M135.751 108.888L130.151 108.912L130.251 132.412L135.851 132.388L135.751 108.888Z" fill="#7BBB2B"/>
<path d="M143.336 104.816L138.228 107.111L145.236 122.71L150.344 120.415L143.336 104.816Z" fill="#7BBB2B"/>
</svg>
