<svg width="130" height="50" viewBox="0 0 130 50" fill="none" xmlns="http://www.w3.org/2000/svg">
<path d="M117.715 12.9383C116.545 12.9383 115.505 13.6536 114.985 14.6288C114.92 14.6288 114.855 14.6288 114.855 14.6288H96.395C89.635 14.6288 84.63 19.1802 81.38 23.8616C81.445 23.0164 81.445 22.0411 81.445 21.0658C81.445 17.8148 80.405 14.9539 78.39 12.8733C75.66 10.0125 71.24 8.58203 65.26 8.58203C58.37 8.58203 53.755 10.2075 51.155 13.5885C50.57 14.3688 50.115 15.149 49.725 15.9943C49.725 16.0593 49.725 16.0593 49.66 16.1243C48.75 18.465 48.555 21.0008 48.555 23.2764C48.555 23.4715 48.555 23.6666 48.555 23.7966C45.305 19.1152 40.365 14.5638 33.605 14.5638H15.145C15.08 14.5638 15.015 14.5638 15.015 14.5638C14.495 13.5885 13.455 12.8733 12.285 12.8733C10.595 12.8733 9.22998 14.2387 9.22998 15.9292C9.22998 17.6197 10.595 18.9852 12.285 18.9852C13.455 18.9852 14.495 18.2699 15.015 17.2946C15.08 17.2946 15.145 17.2946 15.145 17.2946H33.605C37.83 17.2946 41.665 19.3753 45.045 23.5365C45.695 24.3168 46.28 25.162 46.8 25.9422H21.19C21.125 25.9422 21.06 25.9422 21.06 25.9422C20.54 24.9669 19.5 24.2517 18.33 24.2517C16.64 24.2517 15.275 25.6171 15.275 27.3076C15.275 28.9982 16.64 30.3636 18.33 30.3636C19.5 30.3636 20.54 29.6483 21.06 28.6731C21.125 28.6731 21.19 28.6731 21.19 28.6731H47.905C48.035 28.6731 48.23 28.608 48.36 28.608C49.14 30.1685 49.725 31.5339 50.05 32.5092C50.05 32.5742 50.115 32.7043 50.115 32.8343V32.8993C50.31 33.5495 50.57 34.2647 50.83 35.045C50.96 35.5001 51.155 36.0203 51.35 36.5404H29.185C29.12 36.5404 29.055 36.5404 29.055 36.5404C28.535 35.5651 27.495 34.8499 26.325 34.8499C24.635 34.8499 23.27 36.2153 23.27 37.9058C23.27 39.5963 24.635 40.9617 26.325 40.9617C27.495 40.9617 28.535 40.2465 29.055 39.2712C29.12 39.2712 29.185 39.2712 29.185 39.2712H43.68H55.055C54.405 37.2556 53.885 35.5651 53.365 34.1997C53.105 33.3545 52.845 32.6392 52.585 31.924V31.859C51.61 28.8681 51.22 27.0476 51.285 23.2764C51.285 22.9513 51.285 22.6913 51.285 22.3662C51.285 22.4312 51.35 22.5612 51.35 22.6262C51.545 23.1464 51.805 23.8616 51.935 24.6418C52.26 26.7875 53.82 28.2829 55.705 28.348H55.77C56.875 28.413 57.915 28.1529 58.955 27.7628C58.89 28.2179 58.825 28.7381 58.825 29.2582C58.89 31.1438 59.865 32.3142 60.905 33.4845C61.62 34.3298 62.465 35.3701 63.245 36.8655C63.635 37.5807 64.35 38.0359 65.13 38.0359C65.91 38.0359 66.625 37.5807 67.015 36.9305C67.73 35.5651 68.64 34.5248 69.355 33.6145C70.785 31.859 72.15 30.2335 71.435 27.5677C71.5 27.5677 71.5 27.6327 71.565 27.6327C72.085 28.0229 72.735 28.2829 73.45 28.413C73.645 28.478 73.905 28.478 74.1 28.478C74.425 28.478 74.685 28.413 74.945 28.2829C76.44 27.8928 77.545 26.5274 77.805 24.7069C77.935 23.9266 78.195 23.2114 78.39 22.6913C78.455 22.4962 78.52 22.2361 78.585 21.976L78.65 21.911C78.585 26.7875 77.74 29.6484 76.505 34.0047C76.05 35.5651 75.53 37.3207 75.01 39.3363H87.425H100.75C100.815 39.3363 100.88 39.3363 100.88 39.3363C101.4 40.3115 102.44 41.0268 103.61 41.0268C105.3 41.0268 106.665 39.6614 106.665 37.9708C106.665 36.2803 105.3 34.9149 103.61 34.9149C102.44 34.9149 101.4 35.6301 100.88 36.6054C100.815 36.6054 100.75 36.6054 100.75 36.6054H78.65C78.845 35.9552 79.04 35.305 79.17 34.7199C79.3 34.3298 79.43 33.8746 79.495 33.4845C79.625 33.3545 79.755 33.1594 79.82 32.8993C80.08 31.924 80.73 30.3636 81.64 28.608C81.77 28.6731 81.965 28.6731 82.095 28.6731H108.81C108.875 28.6731 108.94 28.6731 108.94 28.6731C109.46 29.6483 110.5 30.3636 111.67 30.3636C113.36 30.3636 114.725 28.9982 114.725 27.3076C114.725 25.6171 113.36 24.2517 111.67 24.2517C110.5 24.2517 109.46 24.9669 108.94 25.9422C108.875 25.9422 108.81 25.9422 108.81 25.9422H83.2C83.72 25.162 84.305 24.3168 84.955 23.5365C88.335 19.3753 92.17 17.2946 96.395 17.2946H114.855C114.92 17.2946 114.985 17.2946 114.985 17.2946C115.505 18.2699 116.545 18.9852 117.715 18.9852C119.405 18.9852 120.77 17.6197 120.77 15.9292C120.77 14.2387 119.405 12.9383 117.715 12.9383ZM12.285 17.3597C11.57 17.3597 10.92 16.7745 10.92 15.9943C10.92 15.279 11.505 14.6288 12.285 14.6288C13 14.6288 13.65 15.214 13.65 15.9943C13.65 16.7095 13 17.3597 12.285 17.3597ZM18.33 28.7381C17.615 28.7381 16.965 28.1529 16.965 27.3727C16.965 26.5924 17.55 26.0073 18.33 26.0073C19.11 26.0073 19.695 26.5924 19.695 27.3727C19.695 28.1529 19.045 28.7381 18.33 28.7381ZM26.325 39.3363C25.61 39.3363 24.96 38.7511 24.96 37.9708C24.96 37.1906 25.545 36.6054 26.325 36.6054C27.04 36.6054 27.69 37.1906 27.69 37.9708C27.69 38.7511 27.04 39.3363 26.325 39.3363ZM55.9 25.6171C54.99 25.6171 54.73 24.3818 54.73 24.2517C54.665 23.9917 54.6 23.7316 54.6 23.4715C54.665 23.4715 54.73 23.4715 54.73 23.4715C54.795 23.4715 54.86 23.4715 54.925 23.4715C54.99 23.4715 55.055 23.4715 55.185 23.4715C55.445 23.4065 55.64 23.4065 55.9 23.4065C56.55 23.4065 57.07 23.9266 57.07 24.5768C57.07 25.097 56.55 25.6171 55.9 25.6171ZM67.405 31.794C66.755 32.5742 66.04 33.4845 65.325 34.5898C64.545 33.3545 63.83 32.4442 63.18 31.664C62.205 30.5586 61.75 29.9734 61.75 29.0632C61.685 27.0476 63.245 25.3571 65.26 25.227H65.325C65.65 25.227 66.04 25.292 66.43 25.3571C67.6 25.6822 68.575 26.6575 69.03 27.9578C69.29 29.3883 68.835 30.1035 67.405 31.794ZM75.14 24.2517C75.14 24.3818 74.88 25.6171 73.97 25.6171C73.84 25.5521 73.515 25.4871 73.125 25.292C72.93 25.097 72.8 24.7719 72.8 24.4468C72.8 23.7966 73.32 23.2764 73.97 23.2764C74.23 23.2764 74.425 23.3415 74.685 23.3415C74.88 23.3415 75.075 23.4065 75.27 23.4065C75.27 23.6666 75.205 23.9266 75.14 24.2517ZM75.335 20.6757C75.27 20.6757 75.205 20.6757 75.14 20.6757C74.815 20.6106 74.425 20.5456 73.97 20.5456C72.02 20.5456 70.395 21.976 70.135 23.7966C69.03 23.3415 67.925 22.9513 66.82 22.7563C66.365 22.6262 65.845 22.5612 65.325 22.5612C65.13 22.5612 64.87 22.5612 64.675 22.5612C63.115 22.6262 61.685 23.4065 60.255 24.1217C60.125 24.1867 59.93 24.3168 59.8 24.3818C59.8 22.2361 58.045 20.5456 55.9 20.5456C55.445 20.5456 55.055 20.6106 54.73 20.6757C52.325 20.0905 52.325 17.5547 52.39 16.9045C53.82 13.6536 57.265 11.3779 65.325 11.3779C71.825 11.3779 76.05 13.2634 77.805 16.7745C77.805 17.0996 78.065 20.0905 75.335 20.6757ZM103.675 36.6705C104.39 36.6705 105.04 37.2556 105.04 38.0359C105.04 38.8161 104.455 39.4013 103.675 39.4013C102.96 39.4013 102.31 38.8161 102.31 38.0359C102.31 37.2556 102.96 36.6705 103.675 36.6705ZM111.735 26.0723C112.45 26.0723 113.1 26.6575 113.1 27.4377C113.1 28.2179 112.515 28.8031 111.735 28.8031C110.955 28.8031 110.37 28.2179 110.37 27.4377C110.37 26.6575 110.955 26.0723 111.735 26.0723ZM117.715 17.3597C117 17.3597 116.35 16.7745 116.35 15.9943C116.35 15.279 116.935 14.6288 117.715 14.6288C118.43 14.6288 119.08 15.214 119.08 15.9943C119.08 16.7095 118.43 17.3597 117.715 17.3597Z" fill="white"/>
<path d="M65.2597 38.0351C65.2597 38.0351 65.1947 38.0351 65.2597 38.0351C64.4147 38.0351 63.6997 37.58 63.3747 36.8647C62.5947 35.3693 61.7497 34.394 61.0347 33.4837C59.9947 32.2484 59.0197 31.078 58.9547 29.2575C58.8247 25.7464 61.5547 22.8205 64.9997 22.6255C67.8597 22.4954 70.5247 24.381 71.4347 27.3069C72.3447 30.1027 70.9147 31.7932 69.4197 33.6138C68.6397 34.524 67.7947 35.5643 67.0797 36.9298C66.7547 37.645 66.0397 38.0351 65.2597 38.0351ZM65.2597 25.3563C65.1947 25.3563 65.1297 25.3563 65.0647 25.3563C63.0497 25.4863 61.4897 27.1768 61.5547 29.1924C61.6197 30.1027 62.0747 30.6229 62.9847 31.7932C63.6347 32.5735 64.4147 33.4837 65.1297 34.7191C65.8447 33.5487 66.6247 32.6385 67.2097 31.9233C68.6397 30.1677 69.0947 29.5175 68.7047 28.2171C68.3147 26.4616 66.8847 25.3563 65.2597 25.3563Z" fill="white"/>
<path d="M18.3298 30.8179C16.4448 30.8179 14.8848 29.2574 14.8848 27.3718C14.8848 25.4862 16.4448 23.9258 18.3298 23.9258C20.2148 23.9258 21.7748 25.4862 21.7748 27.3718C21.7748 29.2574 20.2148 30.8179 18.3298 30.8179ZM18.3298 26.1364C17.6148 26.1364 17.0948 26.7216 17.0948 27.3718C17.0948 28.087 17.6798 28.6072 18.3298 28.6072C19.0448 28.6072 19.5648 28.022 19.5648 27.3718C19.5648 26.7216 18.9798 26.1364 18.3298 26.1364Z" fill="white"/>
<path d="M12.2848 19.4409C10.3998 19.4409 8.83984 17.8804 8.83984 15.9949C8.83984 14.1093 10.3998 12.5488 12.2848 12.5488C14.1698 12.5488 15.7298 14.1093 15.7298 15.9949C15.7298 17.8804 14.1698 19.4409 12.2848 19.4409ZM12.2848 14.7595C11.5698 14.7595 11.0498 15.3447 11.0498 15.9949C11.0498 16.7101 11.6348 17.2302 12.2848 17.2302C12.9998 17.2302 13.5198 16.6451 13.5198 15.9949C13.5198 15.2796 12.9998 14.7595 12.2848 14.7595Z" fill="white"/>
<path d="M26.3249 41.4175C24.4399 41.4175 22.8799 39.857 22.8799 37.9714C22.8799 36.0859 24.4399 34.5254 26.3249 34.5254C28.2099 34.5254 29.7699 36.0859 29.7699 37.9714C29.7699 39.857 28.2099 41.4175 26.3249 41.4175ZM26.3249 36.7361C25.6099 36.7361 25.0899 37.3212 25.0899 37.9714C25.0899 38.6866 25.6749 39.2068 26.3249 39.2068C27.0399 39.2068 27.5599 38.6216 27.5599 37.9714C27.5599 37.3212 26.9749 36.7361 26.3249 36.7361Z" fill="white"/>
<path d="M111.67 30.8179C109.785 30.8179 108.225 29.2574 108.225 27.3718C108.225 25.4862 109.785 23.9258 111.67 23.9258C113.555 23.9258 115.115 25.4862 115.115 27.3718C115.115 29.2574 113.62 30.8179 111.67 30.8179ZM111.67 26.1364C110.955 26.1364 110.435 26.7216 110.435 27.3718C110.435 28.087 111.02 28.6072 111.67 28.6072C112.385 28.6072 112.905 28.022 112.905 27.3718C112.97 26.7216 112.385 26.1364 111.67 26.1364Z" fill="white"/>
<path d="M117.715 19.4409C115.83 19.4409 114.27 17.8804 114.27 15.9949C114.27 14.1093 115.83 12.5488 117.715 12.5488C119.6 12.5488 121.16 14.1093 121.16 15.9949C121.16 17.8804 119.6 19.4409 117.715 19.4409ZM117.715 14.7595C117 14.7595 116.48 15.3447 116.48 15.9949C116.48 16.7101 117.065 17.2302 117.715 17.2302C118.43 17.2302 118.95 16.6451 118.95 15.9949C118.95 15.2796 118.43 14.7595 117.715 14.7595Z" fill="white"/>
<path d="M103.675 41.4175C101.79 41.4175 100.23 39.857 100.23 37.9714C100.23 36.0859 101.79 34.5254 103.675 34.5254C105.56 34.5254 107.12 36.0859 107.12 37.9714C107.12 39.857 105.625 41.4175 103.675 41.4175ZM103.675 36.7361C102.96 36.7361 102.44 37.3212 102.44 37.9714C102.44 38.6866 103.025 39.2068 103.675 39.2068C104.39 39.2068 104.91 38.6216 104.91 37.9714C104.975 37.3212 104.39 36.7361 103.675 36.7361Z" fill="white"/>
</svg>
