<svg width="20" height="17" viewBox="0 0 20 17" fill="none" xmlns="http://www.w3.org/2000/svg">
<path fill-rule="evenodd" clip-rule="evenodd" d="M4.68261 0.0214107C3.44712 0.242947 2.53151 0.701757 1.71929 1.50634C0.977965 2.24069 0.43565 3.20045 0.219273 4.16095C0.172915 4.36683 0.119149 4.59088 0.0998336 4.65885C0.0326067 4.89534 -0.0194464 5.72563 0.0070381 6.13834C0.0394568 6.64292 0.244364 7.53986 0.441982 8.04241C1.07745 9.65834 2.18984 11.1801 4.05129 12.9799C4.21529 13.1385 4.45469 13.3609 4.58329 13.4742C4.71185 13.5875 4.94364 13.7923 5.09832 13.9294C5.39136 14.1892 6.48253 15.0696 6.79341 15.2971C6.89198 15.3693 7.0712 15.5019 7.19167 15.5919C7.55983 15.8668 8.75701 16.6919 8.89055 16.7628C9.494 17.0832 10.5128 17.0784 11.1274 16.7523C11.3049 16.6582 12.3903 15.9057 12.9665 15.4773C13.599 15.007 13.6972 14.9298 14.3803 14.3657C15.1793 13.7059 15.3475 13.5576 15.9674 12.9659C18.8425 10.2218 20.1798 7.66492 19.9806 5.2929C19.7938 3.06834 18.5669 1.2432 16.7102 0.42774C16.524 0.34593 16.2731 0.251475 16.1526 0.217737C15.4409 0.0185687 15.3438 0.0048925 14.6392 0.00443937C13.9759 0.00402744 13.9173 0.0107419 13.4254 0.142889C12.6208 0.358989 12.0027 0.663323 11.3395 1.16983C11.0029 1.42696 10.3756 2.06228 10.1794 2.34483C10.1058 2.45073 10.0263 2.53728 10.0026 2.53712C9.97896 2.53695 9.91488 2.4689 9.8602 2.3859C9.69014 2.1277 8.97988 1.41003 8.63156 1.1445C8.00246 0.664889 7.34353 0.343459 6.57684 0.142189C6.164 0.0337686 6.00967 0.014161 5.47914 0.0026681C5.13962 -0.00470547 4.78118 0.00373888 4.68261 0.0214107Z" fill="#C1C8CB"/>
</svg>
