<svg width="40" height="35" viewBox="0 0 40 35" fill="none" xmlns="http://www.w3.org/2000/svg">
<path fill-rule="evenodd" clip-rule="evenodd" d="M19.5299 0.128534C19.194 0.357283 0.33227 16.1288 0.190511 16.2994C-0.255811 16.8365 0.132305 17.6519 0.834215 17.6519C0.987162 17.6519 1.19941 17.593 1.30573 17.5211C1.41213 17.4492 5.62781 13.9417 10.6739 9.72672C15.7199 5.51174 19.8982 2.04442 19.959 2.02155C20.0261 1.9963 20.5867 2.41411 21.385 3.08424C25.6066 6.62801 38.5344 17.4073 38.6971 17.519C39.3937 17.9976 40.304 17.2034 39.9007 16.4689C39.8089 16.3019 38.3915 15.0636 36.0588 13.1129L32.3623 10.0215V5.85103C32.3623 1.3092 32.3617 1.30214 31.9225 1.01981C31.7234 0.89185 31.4993 0.879492 29.3748 0.879492H27.0454L26.7896 1.13027L26.5339 1.38113L26.5104 3.22202C26.4974 4.23459 26.4696 5.063 26.4485 5.063C26.4274 5.063 25.0947 3.96062 23.487 2.61323C21.8794 1.26591 20.4926 0.126 20.4052 0.0800971C20.1688 -0.0440263 19.749 -0.0208444 19.5299 0.128534ZM30.6412 5.56195C30.6412 7.18737 30.6236 8.51727 30.602 8.51727C30.5804 8.51727 30.0348 8.0798 29.3894 7.54508L28.2159 6.5729V4.58976V2.60663H29.4285H30.6412V5.56195ZM19.6192 4.93964C19.2813 5.12341 4.06158 17.9159 3.93289 18.1243C3.55236 18.7405 4.13762 19.5274 4.8357 19.3383C4.98583 19.2977 5.35267 19.0571 5.65089 18.8038C5.9492 18.5505 6.21965 18.3431 6.25188 18.343C6.28411 18.3429 6.31056 21.9732 6.31056 26.4104V34.478L6.57655 34.739L6.84254 35H20.0014H33.1603L33.4263 34.739L33.6923 34.478V26.4104C33.6923 21.9732 33.7189 18.3427 33.7515 18.3427C33.7841 18.3427 34.0388 18.5379 34.3175 18.7764C34.9625 19.3284 35.2551 19.4552 35.6144 19.3389C36.131 19.1716 36.3567 18.5433 36.0583 18.1032C35.9113 17.8863 20.8211 5.20815 20.4317 4.97426C20.1572 4.80938 19.8804 4.79763 19.6192 4.93964ZM26.032 11.8216L31.9621 16.7691L31.9666 25.0402L31.9711 33.3112H28.568H25.1648V28.1694V23.0277L24.9365 22.777L24.7083 22.5262L20.1351 22.5053C17.2272 22.4919 15.487 22.5122 15.3565 22.5609C15.2435 22.6031 15.0807 22.7507 14.9948 22.8889C14.8429 23.1335 14.8385 23.2785 14.8383 28.2258L14.838 33.3112H11.4345H8.03099L8.05094 25.0414L8.07081 16.7717L14.0166 11.8006C17.2867 9.06649 19.9937 6.83956 20.0321 6.85185C20.0705 6.86413 22.7704 9.1005 26.032 11.8216ZM23.4437 28.7439V33.3112H20.0014H16.5591V28.7439V24.1766H20.0014H23.4437V28.7439Z" fill="#89B948"/>
</svg>
