<svg width="32" height="32" viewBox="0 0 32 32" fill="none" xmlns="http://www.w3.org/2000/svg">
<path fill-rule="evenodd" clip-rule="evenodd" d="M26.7614 0.0970782C25.4928 0.437988 24.5015 1.6757 24.5015 2.91897C24.5015 3.06654 24.492 3.18722 24.4803 3.18722C24.4687 3.18722 24.0673 2.96805 23.5885 2.70018C23.1096 2.4323 22.0455 1.8374 21.2237 1.37812C20.402 0.918777 19.5617 0.490763 19.3564 0.426921C18.8668 0.274724 18.1219 0.274224 17.6344 0.425795C17.4311 0.489075 16.619 0.901894 15.8296 1.34323C8.50987 5.43615 6.25054 6.71481 6.04139 6.88271C5.76753 7.10262 5.36713 7.65551 5.20817 8.03325C4.64418 9.37344 5.15905 11.0135 6.40286 11.8391C6.9288 12.1882 7.46825 12.3719 8.03061 12.3935L8.46756 12.4103L8.48997 12.8907C8.514 13.4058 8.60142 13.59 8.94268 13.8446C9.185 14.0254 9.77865 14.0254 10.021 13.8446C10.4151 13.5506 10.4501 13.4463 10.4722 12.4997L10.4926 11.6284L10.7539 11.4791C11.3772 11.1226 17.8556 7.50869 18.0368 7.41627C18.147 7.36012 18.36 7.31416 18.5103 7.31416C18.8049 7.31416 18.6554 7.23468 24.1886 10.3324L26.4728 11.6112V16.7428C26.4728 21.8281 26.4716 21.8759 26.3438 22.047C26.2728 22.142 26.137 22.2777 26.042 22.3486C25.8793 22.4702 25.773 22.4786 24.1841 22.496L22.4988 22.5146V19.1436C22.4988 17.1123 22.4734 15.6389 22.435 15.4362C22.2252 14.3311 21.3309 13.3913 20.212 13.1001C19.6899 12.9642 17.2974 12.9642 16.7752 13.1001C16.2302 13.2419 15.7249 13.5373 15.343 13.9374C14.4988 14.8216 14.4586 15.6534 15.2406 16.0526C15.3922 16.1301 15.5858 16.1933 15.6709 16.1933C15.9219 16.1933 16.3739 15.9402 16.4838 15.7381C16.6576 15.4186 16.8841 15.1792 17.0962 15.0906C17.2445 15.0287 17.6275 15.0053 18.4936 15.0053C19.8449 15.0053 19.9979 15.0404 20.2846 15.4158L20.4649 15.652L20.4821 19.0748L20.4993 22.4977L19.8137 22.5189C19.2398 22.5366 19.1 22.5611 18.9556 22.669C18.6273 22.9142 18.5249 23.114 18.5249 23.5093C18.5249 23.9047 18.6273 24.1045 18.9557 24.3495C19.1244 24.4754 19.2071 24.4789 22.4179 24.4957C24.4872 24.5066 25.8367 24.489 26.0564 24.4485C27.2178 24.234 28.2307 23.2285 28.4442 22.0782C28.4822 21.8734 28.507 19.9131 28.5073 17.0759L28.508 12.4103L28.9413 12.3967C30.4402 12.3498 31.7403 11.1598 31.9634 9.63037C32.0583 8.97982 31.9714 8.4485 31.6705 7.84028C31.4459 7.38613 30.8722 6.73301 30.6307 6.65641C30.514 6.61939 30.5093 6.54236 30.5093 4.63434C30.5093 3.07779 30.4892 2.57362 30.416 2.29261C29.9935 0.671911 28.3335 -0.32537 26.7614 0.0970782ZM27.9015 2.08445C28.1635 2.19381 28.429 2.50946 28.4756 2.76696C28.4956 2.87776 28.5038 3.52275 28.4938 4.20038L28.4754 5.43234L27.4916 4.88821L26.5078 4.34401L26.506 3.58209C26.5049 3.16302 26.5341 2.74095 26.5709 2.64415C26.7699 2.11922 27.375 1.86466 27.9015 2.08445ZM19.0097 2.44474C19.8108 2.85306 29.5636 8.34765 29.6882 8.46076C30.0326 8.77366 30.0942 9.24532 29.8533 9.72492C29.6113 10.2065 29.0653 10.4994 28.5762 10.41C28.452 10.3873 27.6321 9.96647 26.7544 9.47486C25.8767 8.98326 23.9617 7.90956 22.4988 7.08887C21.036 6.26817 19.6561 5.53363 19.4323 5.4566C18.8703 5.26294 18.114 5.26351 17.5549 5.45785C17.3312 5.53564 15.2604 6.65773 12.9534 7.95127C10.6462 9.24488 8.64348 10.3343 8.50286 10.3721C7.92641 10.5272 7.32363 10.207 7.07574 9.61412C6.90076 9.19554 6.98844 8.74258 7.29903 8.46107C7.40861 8.36171 16.6509 3.15377 18.0242 2.41748C18.2889 2.2756 18.7003 2.28698 19.0097 2.44474ZM7.2081 15.0988C3.60476 15.688 0.831697 18.3592 0.11332 21.9329C-0.0376273 22.6838 -0.037815 24.3339 0.113007 25.0839C0.639196 27.7011 2.32947 29.9324 4.68292 31.1166C5.3563 31.4554 6.49317 31.8074 7.29146 31.924C8.12543 32.046 9.25753 32.0191 10.0939 31.8576C13.4868 31.2026 16.16 28.5176 16.8491 25.0725C17.0013 24.3119 16.9967 22.6704 16.8403 21.9148C16.1303 18.4845 13.6072 15.9273 10.2015 15.1863C9.43939 15.0205 7.95295 14.9771 7.2081 15.0988ZM9.85732 17.155C11.1749 17.4693 12.2368 18.0634 13.1322 18.9871C13.6632 19.5348 13.9062 19.874 14.261 20.5625C15.2149 22.4139 15.2235 24.5289 14.2845 26.4169C13.8493 27.292 13.0124 28.2659 12.2041 28.8379C10.9193 29.7471 9.13381 30.1753 7.58509 29.9456C4.46996 29.4836 2.16187 26.9554 1.99053 23.8175C1.83294 20.9315 3.69657 18.2367 6.4779 17.3289C7.48021 17.0017 8.90689 16.9283 9.85732 17.155ZM8.07373 19.5922C7.84193 19.6994 7.6341 19.92 7.54598 20.1524C7.50799 20.2525 7.47921 20.797 7.47921 21.4148V22.5012L6.29453 22.5206C4.9984 22.5419 4.94514 22.5563 4.63561 22.9706C4.45469 23.2127 4.45469 23.8059 4.63561 24.048C4.94501 24.462 4.99877 24.4767 6.29078 24.4979L7.47169 24.5172L7.4911 25.6972C7.51231 26.9881 7.52696 27.0418 7.94137 27.351C8.18369 27.5317 8.77734 27.5317 9.01966 27.351C9.43408 27.0418 9.44872 26.9881 9.46993 25.6972L9.48933 24.5172L10.6703 24.4979C11.9623 24.4767 12.016 24.462 12.3254 24.048C12.5063 23.8059 12.5063 23.2127 12.3254 22.9706C12.016 22.5565 11.9623 22.5419 10.6703 22.5207L9.48933 22.5013L9.46993 21.3214C9.44878 20.035 9.43295 19.9759 9.02892 19.6745C8.82152 19.5198 8.32312 19.4768 8.07373 19.5922Z" fill="#89B948"/>
</svg>
