<svg width="44" height="44" viewBox="0 0 44 44" fill="none" xmlns="http://www.w3.org/2000/svg">
<path fill-rule="evenodd" clip-rule="evenodd" d="M10.9523 0.0534025C9.67403 0.254057 8.6465 0.711264 7.38088 1.64229C6.92903 1.97478 6.5141 2.24671 6.45882 2.24671C6.40345 2.24671 6.08458 2.38365 5.75007 2.55099C4.31068 3.27108 3.34635 4.82024 3.34635 6.41229C3.34635 7.30394 3.51914 7.86837 4.22051 9.26856L4.83442 10.494L4.49279 10.5518C4.01353 10.6327 3.39926 11.0475 3.10904 11.4861C2.88668 11.822 2.86295 11.9319 2.86295 12.6258C2.86295 13.3388 2.88202 13.4208 3.12935 13.7727C3.47291 14.2615 4.07083 14.6293 4.62973 14.6955L5.06821 14.7474L5.23362 15.3306C5.66877 16.8642 6.70737 18.2674 8.07047 19.1633L8.444 19.4088V20.3502V21.2917L5.21402 22.6307C3.43758 23.367 1.7753 24.1104 1.52024 24.2826C0.964072 24.6579 0.613828 25.0823 0.290742 25.7719L0.0504492 26.2848L0.0252246 31.537L0 36.7891L0.218936 37.0082L0.437959 37.2272H3.03478H5.6315V40.1755V43.1239L5.84728 43.3395L6.06296 43.5553H21.8034H37.5438L37.7595 43.3395L37.9753 43.1239V40.1755V37.2272H40.572H43.1688L43.3845 37.0114L43.6003 36.7957L43.5992 31.7599C43.5981 26.4942 43.5843 26.2756 43.2064 25.5377C42.9442 25.0259 42.575 24.6122 42.0865 24.2831C41.8315 24.1113 40.1692 23.3669 38.3927 22.629L35.1628 21.2874V20.3481V19.4088L35.5363 19.1633C36.8994 18.2674 37.938 16.8642 38.3731 15.3306L38.5385 14.7474L38.977 14.6955C39.9787 14.5768 40.7138 13.7659 40.7711 12.7162C40.7988 12.2106 40.7699 12.0711 40.5504 11.651C40.2589 11.0929 39.6781 10.647 39.12 10.5527C38.9254 10.5199 38.7663 10.4806 38.7663 10.4654C38.7663 10.4502 38.9501 10.0088 39.1746 9.48433C39.6701 8.32716 39.8029 7.85203 39.8705 6.99281C39.9901 5.47581 39.3301 3.75984 38.1968 2.64125C37.5108 1.96406 36.965 1.64537 35.0749 0.818227C33.5602 0.155443 32.9084 0.00532626 31.6032 0.0186856C29.8602 0.0364395 28.6737 0.461303 27.0684 1.64229C26.6165 1.97478 26.2016 2.24671 26.1463 2.24671C25.828 2.24671 24.7752 2.90809 24.2912 3.41214C23.3644 4.37736 22.9753 5.42712 23.0618 6.72913C23.0891 7.14002 23.1387 7.56726 23.172 7.67853C23.228 7.86574 23.2137 7.87584 22.9794 7.81441C22.6174 7.7194 20.8618 7.74506 20.4168 7.85176L20.0409 7.94194L20.1088 7.62122C20.2198 7.09722 20.165 5.84777 20.0043 5.23499C19.6501 3.88359 18.6278 2.50037 17.4857 1.82695C16.7108 1.37009 14.3465 0.351264 13.6881 0.190424C12.9449 0.00892981 11.649 -0.0559335 10.9523 0.0534025ZM13.4532 1.58736C14.2711 1.79935 16.6827 2.93657 17.1891 3.34913C18.3783 4.31794 18.9758 5.82421 18.7392 7.25665C18.5617 8.33156 18.4559 8.49864 17.5305 9.16476C16.6241 9.81726 16.6122 9.82429 15.6385 10.2813C13.7961 11.1461 12.8021 13.2885 13.3203 15.2778C13.3918 15.5527 13.7283 16.3322 14.0679 17.0101L14.6854 18.2428H14.2336C13.5148 18.2428 13.1064 18.4084 12.6158 18.899C11.7266 19.7882 11.7266 20.9162 12.6158 21.8054C13.1277 22.3172 13.5124 22.4616 14.3648 22.4616C14.8152 22.4616 14.9479 22.4906 14.9479 22.5888C14.9479 22.8846 15.518 24.2571 15.8647 24.7958C16.3096 25.4874 17.1636 26.3748 17.8179 26.8254L18.2878 27.1489V28.051V28.953L17.8263 29.0859C17.5726 29.1589 15.3478 29.7761 12.8825 30.4573C10.4171 31.1386 8.22208 31.7581 8.00455 31.8339C6.60217 32.3229 5.6315 33.7239 5.6315 35.2589V35.8209H3.51914H1.40687L1.43174 31.1847C1.45652 26.5863 1.45828 26.5455 1.6519 26.1835C1.75931 25.9826 1.98896 25.7015 2.16229 25.5586C2.35687 25.3982 3.84047 24.7331 6.03773 23.821C8.33432 22.8678 9.64266 22.2794 9.72404 22.1632C9.82239 22.0227 9.85025 21.6329 9.85025 20.3961C9.85025 18.5681 9.85544 18.5834 9.08042 18.1455C8.80295 17.9888 8.29371 17.5763 7.949 17.2289C7.18365 16.4579 6.66281 15.4772 6.45706 14.4196C6.27249 13.4712 6.11024 13.3209 5.27106 13.3209C4.73599 13.3209 4.62885 13.2931 4.44103 13.1052C4.15556 12.8198 4.15556 12.4158 4.44103 12.1305C4.62946 11.9419 4.73546 11.9147 5.27994 11.9147C5.82442 11.9147 5.93042 11.8874 6.11886 11.6989C6.30193 11.5159 6.3348 11.3993 6.33577 10.9299C6.33691 10.4118 6.28796 10.2762 5.56673 8.79896L4.79654 7.22141V6.42591C4.79654 5.68763 4.81808 5.59086 5.09607 5.07811C5.45317 4.41954 5.8471 4.05313 6.50637 3.76625C7.38545 3.38384 7.51236 3.30975 8.35611 2.6874C9.22843 2.04395 10.1638 1.61179 11.0133 1.45974C11.6229 1.35058 12.771 1.41061 13.4532 1.58736ZM33.1407 1.58736C33.9586 1.79935 36.3702 2.93657 36.8766 3.34913C37.7441 4.05594 38.2406 4.92896 38.4362 6.09158C38.5762 6.92425 38.4138 7.69444 37.7954 9.13198C37.3359 10.2 37.2721 10.4174 37.2721 10.9157C37.2721 11.401 37.3033 11.5144 37.4879 11.6989C37.6763 11.8874 37.7823 11.9147 38.3268 11.9147C38.8713 11.9147 38.9773 11.9419 39.1657 12.1305C39.4512 12.4158 39.4512 12.8198 39.1657 13.1052C38.9779 13.2931 38.8708 13.3209 38.3357 13.3209C37.4965 13.3209 37.3343 13.4712 37.1497 14.4196C36.9445 15.4743 36.4233 16.457 35.6578 17.2325C35.313 17.5818 34.8028 17.9957 34.5241 18.1523C33.7498 18.5872 33.7565 18.5676 33.7565 20.406C33.7565 21.7991 33.7761 22.0257 33.9103 22.1835C33.9991 22.2878 35.558 22.9846 37.5955 23.8305C39.7803 24.7377 41.2475 25.3962 41.4432 25.5576C41.6173 25.701 41.8475 25.9826 41.9549 26.1835C42.1485 26.5455 42.1502 26.5863 42.175 31.1847L42.1999 35.8209H40.0876H37.9753V35.2575C37.9753 33.8874 37.1933 32.5965 35.9813 31.9656C35.8755 31.9106 33.5025 31.2312 30.7078 30.4559C27.9132 29.6806 25.5574 29.0254 25.4728 28.9999C25.3393 28.9597 25.319 28.8344 25.319 28.0513V27.1489L25.7995 26.818C26.4612 26.3623 27.4191 25.3322 27.8497 24.6131C28.0472 24.2834 28.3199 23.6654 28.4557 23.2397L28.7028 22.4658L29.2639 22.4637C30.0963 22.4606 30.4832 22.3131 30.9909 21.8054C31.8801 20.9162 31.8801 19.7882 30.9909 18.899C30.5004 18.4086 30.092 18.2428 29.3738 18.2428C29.1255 18.2428 28.9225 18.2269 28.9225 18.2075C28.9225 18.1881 29.1063 17.7431 29.3309 17.2187C29.8264 16.0615 29.9591 15.5864 30.0268 14.7272C30.1467 13.2047 29.4995 11.5277 28.3473 10.3755C27.7617 9.78993 27.5648 9.66073 26.3791 9.08452L25.0617 8.44423L24.7729 7.82838C24.5134 7.27511 24.484 7.1322 24.484 6.42152C24.484 5.68825 24.5059 5.59016 24.7836 5.07811C25.1407 4.41954 25.5346 4.05313 26.1939 3.76625C27.073 3.38384 27.1999 3.30975 28.0436 2.6874C28.9159 2.04395 29.8513 1.61179 30.7008 1.45974C31.3104 1.35058 32.4585 1.41061 33.1407 1.58736ZM23.3111 9.31751C24.0922 9.52124 26.542 10.6837 27.0329 11.0835C28.5367 12.3087 29.0549 14.4052 28.2718 16.0955L28.0709 16.5289L27.6627 15.7196C27.0506 14.506 26.8552 14.4648 25.7116 15.3087C24.25 16.3871 23.5056 16.7046 22.2045 16.8047C20.7306 16.9179 19.5209 16.5152 18.0415 15.4187C16.7242 14.4423 16.555 14.4705 15.9186 15.772C15.7032 16.2125 15.5021 16.5729 15.4717 16.5729C15.4413 16.5729 15.2419 16.207 15.0284 15.7599C14.6585 14.9851 14.6403 14.9098 14.6403 14.1559C14.6403 13.4226 14.6622 13.3245 14.9398 12.8125C15.2917 12.1636 15.6787 11.799 16.3501 11.4841C16.7568 11.2934 16.9614 11.2558 17.5846 11.2571C18.2333 11.2585 18.407 11.2942 18.903 11.5279C19.4827 11.801 19.9107 12.1556 20.3158 12.6982L20.54 12.9983L21.0837 12.629C21.3829 12.4259 21.6276 12.2252 21.6276 12.183C21.6276 12.0522 20.9643 11.2594 20.5793 10.9298C20.1687 10.5783 19.2605 10.069 19.0445 10.069C18.6785 10.069 18.9875 9.82157 19.7183 9.52959C20.7783 9.10605 22.1821 9.02317 23.3111 9.31751ZM17.9348 17.0554C19.2042 17.8905 20.23 18.1918 21.8034 18.1918C23.3768 18.1918 24.4026 17.8905 25.672 17.0554C26.0753 16.79 26.4293 16.5729 26.4586 16.5729C26.4879 16.5729 26.7223 16.9992 26.9793 17.5203L27.4468 18.4675L27.4113 20.3108C27.3782 22.0306 27.3604 22.1971 27.1447 22.7986C26.8186 23.7078 26.4195 24.3419 25.7547 25.0066C25.09 25.6713 24.456 26.0704 23.5467 26.3967C22.9902 26.5963 22.7578 26.6285 21.8473 26.6321C20.9934 26.6356 20.6756 26.5993 20.1774 26.4414C18.7474 25.9883 17.4645 24.9068 16.8118 23.6041C16.2911 22.565 16.1817 21.945 16.1799 20.0236L16.1784 18.4207L16.6379 17.4968C16.8906 16.9886 17.1207 16.5729 17.1494 16.5729C17.178 16.5729 17.5315 16.79 17.9348 17.0554ZM14.7721 20.3522V21.0553H14.2848C13.6983 21.0553 13.3659 20.801 13.3659 20.3522C13.3659 19.9034 13.6983 19.6491 14.2848 19.6491H14.7721V20.3522ZM30.0251 19.8648C30.1612 20.0008 30.2409 20.181 30.2409 20.3522C30.2409 20.801 29.9085 21.0553 29.322 21.0553H28.8346V20.3522V19.6491H29.322C29.7223 19.6491 29.848 19.6876 30.0251 19.8648ZM21.8034 28.0242C22.594 28.0242 23.1439 27.9803 23.4513 27.8925L23.9128 27.7607V28.4743V29.1879L22.8581 30.2399L21.8034 31.2918L20.7487 30.2399L19.694 29.1879V28.4743V27.7607L20.1554 27.8925C20.4629 27.9803 21.0128 28.0242 21.8034 28.0242ZM20.1362 31.6461C21.36 32.8612 21.5401 33.0084 21.8034 33.0084C22.0667 33.0084 22.2469 32.8612 23.4709 31.6457L24.8433 30.283L30.069 31.7352C35.6085 33.2747 35.7642 33.3315 36.1933 33.9682C36.3023 34.1298 36.4311 34.4053 36.4797 34.5801C36.5323 34.7693 36.5682 36.366 36.5685 38.5236L36.569 42.1491H34.4596H32.3503V39.3366V36.5241H31.6471H30.944V39.3366V42.1491H21.8034H12.6628V39.3366V36.5241H11.9596H11.2565V39.3366V42.1491H9.14713H7.03775L7.03828 38.5236C7.03854 36.366 7.07449 34.7693 7.12705 34.5801C7.17565 34.4053 7.3045 34.1298 7.41349 33.9682C7.84143 33.3332 8.00341 33.2739 13.4977 31.7424C16.3498 30.9473 18.7015 30.2938 18.7238 30.2903C18.746 30.2867 19.3816 30.8969 20.1362 31.6461Z" fill="#89B948"/>
</svg>
