<svg width="38" height="39" viewBox="0 0 38 39" fill="none" xmlns="http://www.w3.org/2000/svg">
<path fill-rule="evenodd" clip-rule="evenodd" d="M28.6613 0.047631C26.4334 0.395916 24.3405 1.68364 23.1256 3.45359L22.7505 4.00005L22.1641 4.04871C18.6958 4.33659 15.898 6.16077 14.4403 9.08496C13.787 10.3952 13.5333 11.4408 13.4963 12.9739L13.4706 14.0418L11.9085 14.9657C10.8587 15.5867 10.2917 15.9689 10.1794 16.1314C10.0875 16.2645 9.95146 16.6288 9.87722 16.9413C9.80291 17.2536 9.71891 17.5465 9.69045 17.5922C9.65322 17.6519 9.41852 17.6511 8.85288 17.5894C8.1134 17.5087 8.04732 17.5132 7.73208 17.6645C7.34468 17.8504 7.13045 18.207 6.98298 18.9112L6.88975 19.3565L6.50266 19.3131C5.31455 19.1798 5.19631 19.1803 4.92476 19.3199C4.56322 19.5058 4.35129 19.8446 4.19105 20.493L4.05697 21.0356L3.74004 20.9926C2.73347 20.8562 2.31838 20.8529 1.93798 20.9782C1.47458 21.1308 0.917105 21.5962 0.730407 21.9863C0.576864 22.3072 0 25.4499 0 25.9658C0 26.3467 0.204852 26.739 0.478168 26.8813C0.891412 27.0965 4.36806 28.1914 4.63799 28.1914C4.80045 28.1914 5.00892 28.1525 5.10139 28.1049C5.19377 28.0573 7.92432 26.444 11.1693 24.5198C14.4141 22.5956 17.0993 21.0212 17.1362 21.0212C17.1731 21.0212 17.3164 21.2929 17.4546 21.6249L17.706 22.2286L16.6541 23.615C16.0756 24.3775 15.5514 25.122 15.4893 25.2694C15.3934 25.497 15.3906 25.6454 15.4709 26.2537C15.5229 26.6477 15.5474 26.9879 15.5254 27.0098C15.5033 27.0316 15.1772 27.1395 14.8005 27.2494C13.9559 27.496 13.7412 27.6409 13.5728 28.0781C13.4567 28.3796 13.4522 28.4898 13.5349 28.9986C13.5866 29.3166 13.614 29.5917 13.5955 29.6099C13.5771 29.6282 13.2539 29.731 12.8773 29.8384C12.081 30.0655 11.8939 30.1701 11.6893 30.5029C11.5286 30.7642 11.5012 31.2274 11.6082 31.8722L11.6684 32.2348L11.1228 32.3901C9.89899 32.7384 9.5119 32.981 9.19928 33.5957C8.86704 34.2489 8.87473 34.4053 9.33959 36.4613C9.79614 38.48 9.88068 38.6842 10.3528 38.9063C10.6148 39.0295 10.7439 39.0301 12.5274 38.9147C14.6894 38.7748 14.8775 38.7511 15.1281 38.5883C15.2282 38.5233 17.2702 35.8639 19.6658 32.6787L24.0213 26.8874L24.5687 26.9483C25.4785 27.0493 26.9047 27.0103 27.6162 26.865C31.246 26.1234 33.9313 23.516 34.8255 19.8648C34.9332 19.4249 34.9613 19.0028 34.9567 17.8938C34.9513 16.6263 34.9305 16.4089 34.7523 15.7581C34.6432 15.3595 34.5323 14.9799 34.5057 14.9147C34.4722 14.8321 34.5649 14.7195 34.8098 14.5451C36.3625 13.4394 37.5966 11.3749 37.9269 9.33058C38.0771 8.40113 37.9872 6.80708 37.7366 5.95635C37.3264 4.56374 36.7127 3.50973 35.7083 2.47266C34.1717 0.886078 32.3231 0.0705144 30.1163 0.00575447C29.5663 -0.0103402 28.9115 0.00850047 28.6613 0.047631ZM30.8176 1.34756C33.5994 1.73124 35.9484 3.89982 36.5697 6.65788C36.7633 7.51684 36.736 8.85979 36.5068 9.75552C36.1999 10.9555 35.6087 12.002 34.7555 12.8559C34.2103 13.4015 33.9105 13.6199 33.8703 13.5005C33.7601 13.1725 32.9098 12.0818 32.2746 11.4533C31.5776 10.7638 31.4923 10.6477 31.3286 10.1656C30.9154 8.94896 30.2405 7.8485 29.3159 6.88434C28.1655 5.68457 26.583 4.7478 25.0441 4.35558C24.6237 4.24841 24.2699 4.15108 24.258 4.13918C24.2035 4.08525 25.0312 3.17548 25.4149 2.86763C26.99 1.6037 28.86 1.07761 30.8176 1.34756ZM24.2116 5.49456C25.927 5.8523 27.5518 6.80555 28.6386 8.09159C29.0877 8.62295 29.6604 9.48496 29.6025 9.5424C29.5857 9.55895 29.2791 9.47245 28.9211 9.3501C27.735 8.94484 27.2273 8.86505 25.8469 8.86696C24.9461 8.86826 24.4138 8.90563 24.0132 8.99564C20.2937 9.83203 17.5885 12.5295 16.846 16.1427C16.6708 16.9951 16.6256 18.5913 16.757 19.2816L16.8251 19.6395L10.7166 23.2722L4.60799 26.9049L2.95163 26.3574C1.41443 25.8493 1.29827 25.7982 1.33604 25.6467C1.35843 25.557 1.48428 24.8485 1.61566 24.0724C1.74705 23.2962 1.90644 22.5824 1.96983 22.4862C2.16091 22.1959 2.39538 22.1558 3.34395 22.2511C3.82142 22.2991 4.3349 22.3156 4.48491 22.2877C4.82415 22.2246 5.19408 21.8256 5.30462 21.4036C5.3487 21.2353 5.4184 20.9687 5.45955 20.8112L5.53432 20.525L6.33296 20.5935C7.28907 20.6755 7.49177 20.6342 7.81778 20.2915C8.00832 20.0912 8.09694 19.8948 8.19594 19.4536L8.32525 18.8773L9.23282 18.9299C10.0705 18.9785 10.1603 18.9703 10.3973 18.8239C10.7441 18.6098 10.8423 18.4299 11.0464 17.6347C11.1423 17.2615 11.2663 16.9144 11.322 16.8635C11.3778 16.8125 12.1578 16.3357 13.0552 15.8041C13.9527 15.2723 14.7143 14.7956 14.7476 14.7447C14.7809 14.6938 14.8107 14.0685 14.8138 13.3553C14.8214 11.644 15.0128 10.8047 15.6882 9.52371C16.8737 7.27504 19.0903 5.73941 21.6545 5.39037C22.3204 5.29975 23.5099 5.34818 24.2116 5.49456ZM27.8085 10.3743C29.2616 10.746 30.8122 11.6851 31.7507 12.7619C32.1302 13.1974 32.7702 14.1246 32.7702 14.2388C32.7702 14.3626 31.4678 14.7656 30.7243 14.8719L30.4093 14.917L30.3136 14.5938C29.7185 12.5836 26.9752 12.0949 25.7298 13.7773C25.3235 14.3259 25.2065 14.7388 25.2474 15.4781C25.3009 16.4446 25.7851 17.1927 26.6547 17.6523C26.9975 17.8335 27.1228 17.8556 27.8085 17.8556C28.4922 17.8556 28.6208 17.8331 28.964 17.6535C29.3983 17.4262 29.9961 16.8298 30.1412 16.4792C30.2341 16.2548 30.2646 16.2427 31.044 16.12C31.4876 16.0503 32.1527 15.8879 32.522 15.7593C32.8912 15.6306 33.2242 15.5176 33.2621 15.5083C33.2999 15.4988 33.3996 15.7314 33.4836 16.025C33.6076 16.458 33.6381 16.8114 33.6453 17.8938C33.653 19.0691 33.6328 19.3063 33.4759 19.8771C32.709 22.6682 30.5927 24.761 27.7914 25.4986C27.1457 25.6686 26.876 25.6971 25.8854 25.7001C25.0743 25.7026 24.5846 25.6674 24.237 25.5816C23.6943 25.4476 23.5174 25.4801 23.2582 25.7615C23.1671 25.8603 21.1458 28.5327 18.7663 31.7001C16.387 34.8676 14.4364 37.4633 14.4318 37.4684C14.3942 37.5103 11.0275 37.6986 10.9903 37.6609C10.9636 37.6338 10.7839 36.9108 10.5909 36.0541C10.1192 33.9601 10.0782 34.0598 11.5934 33.6079C12.8561 33.2313 13.0972 32.9074 12.9325 31.8094C12.8839 31.485 12.8532 31.2134 12.8645 31.2059C12.8758 31.1985 13.1619 31.1139 13.5004 31.0179C14.3617 30.7737 14.5891 30.6549 14.779 30.3503C14.9301 30.1078 14.9401 30.0199 14.8928 29.3402L14.8411 28.5956L15.5891 28.3766C16.4294 28.1306 16.8031 27.8506 16.8877 27.4039C16.9143 27.2633 16.8882 26.8244 16.8298 26.4286L16.7237 25.7088L17.939 24.0828C18.7158 23.0436 19.1544 22.3906 19.1544 22.2735C19.1544 22.1727 19.002 21.7897 18.8158 21.4223C18.1627 20.1337 17.963 19.1707 18.0195 17.5822C18.0513 16.6901 18.0975 16.3532 18.2645 15.7962C19.1512 12.8374 21.6433 10.6519 24.6546 10.1923C25.4667 10.0683 26.9461 10.1537 27.8085 10.3743ZM28.1754 14.0844C28.4622 14.1633 29.0009 14.6169 29.0009 14.7793C29.0009 14.9013 28.3885 14.8041 27.6739 14.5688C27.3461 14.4609 27.0777 14.3394 27.0777 14.2989C27.0777 14.2084 27.5211 14.0106 27.7316 14.0071C27.8162 14.0057 28.0159 14.0404 28.1754 14.0844ZM27.8461 15.9776C28.2012 16.0666 28.5586 16.1395 28.6403 16.1395C28.7665 16.1395 28.7739 16.1575 28.6889 16.2589C28.3776 16.631 27.5856 16.7157 27.1487 16.4237C26.8759 16.2414 26.5393 15.8057 26.5393 15.6351C26.5393 15.5582 26.617 15.5677 26.8698 15.6751C27.0517 15.7524 27.4909 15.8885 27.8461 15.9776ZM9.3849 21.0277C6.48674 22.7513 4.03766 24.2332 3.94243 24.3209C3.55726 24.6756 3.85589 25.3691 4.39375 25.3691C4.58191 25.3691 5.90295 24.6192 9.95507 22.2123C12.8782 20.4761 15.3302 18.9888 15.4043 18.9073C15.5855 18.7078 15.5742 18.3403 15.3795 18.0948C15.0341 17.6595 15.1145 17.6202 9.3849 21.0277ZM21.4074 23.8626C21.3202 23.957 19.3513 26.5571 17.032 29.6406C13.9327 33.7613 12.807 35.3122 12.7842 35.4928C12.7597 35.6879 12.8013 35.786 12.9863 35.9695C13.2782 36.2589 13.5428 36.2655 13.8414 35.9908C13.9668 35.8754 15.9651 33.2581 18.282 30.1746C22.1314 25.0515 22.4947 24.5428 22.4959 24.274C22.4968 24.0566 22.4502 23.9421 22.3173 23.8354C22.063 23.6312 21.6087 23.6447 21.4074 23.8626Z" fill="#89B948"/>
</svg>
