<svg width="39" height="38" viewBox="0 0 39 38" fill="none" xmlns="http://www.w3.org/2000/svg">
<path fill-rule="evenodd" clip-rule="evenodd" d="M9.29947 0.194354L9.1 0.388629V5.89435V11.4H4.74947H0.398856L0.199469 11.5944L0 11.7886V24.7V37.6114L0.199469 37.8056L0.398856 38H19.5H38.6011L38.8005 37.8056L39 37.6114V24.7V11.7886L38.8005 11.5944L38.6011 11.4H34.2505H29.9V5.89435V0.388629L29.7005 0.194354L29.5011 0H19.5H9.49886L9.29947 0.194354ZM28.6 19V36.7333H27.3H26V32.6167V28.5H26.4505C26.8206 28.5 26.9368 28.4652 27.1005 28.3056C27.2947 28.1165 27.3 28.0795 27.3 26.9167C27.3 25.7538 27.2947 25.7168 27.1005 25.5277L26.9011 25.3333H19.5H12.0989L11.8995 25.5277C11.7053 25.7168 11.7 25.7538 11.7 26.9167C11.7 28.0795 11.7053 28.1165 11.8995 28.3056C12.0632 28.4652 12.1794 28.5 12.5495 28.5H13V32.6167V36.7333H11.7H10.4V19V1.26667H19.5H28.6V19ZM12.5495 3.99435C12.3516 4.18705 12.35 4.2009 12.35 5.7C12.35 7.7349 12.2115 7.6 14.3 7.6C16.3884 7.6 16.25 7.7349 16.25 5.7C16.25 3.6651 16.3884 3.8 14.3 3.8C12.7614 3.8 12.7472 3.80158 12.5495 3.99435ZM17.7495 3.99435C17.5516 4.18705 17.55 4.2009 17.55 5.7C17.55 7.7349 17.4115 7.6 19.5 7.6C21.5884 7.6 21.45 7.7349 21.45 5.7C21.45 3.6651 21.5884 3.8 19.5 3.8C17.9614 3.8 17.9472 3.80158 17.7495 3.99435ZM22.9495 3.99435C22.7516 4.18705 22.75 4.2009 22.75 5.7C22.75 7.7349 22.6115 7.6 24.7 7.6C26.2385 7.6 26.2528 7.59842 26.4505 7.40565C26.6484 7.21295 26.65 7.1991 26.65 5.7C26.65 3.6651 26.7884 3.8 24.7 3.8C23.1614 3.8 23.1472 3.80158 22.9495 3.99435ZM14.95 5.7V6.33333H14.3H13.65V5.7V5.06667H14.3H14.95V5.7ZM20.15 5.7V6.33333H19.5H18.85V5.7V5.06667H19.5H20.15V5.7ZM25.35 5.7V6.33333H24.7H24.05V5.7V5.06667H24.7H25.35V5.7ZM12.5495 9.06102C12.3516 9.25371 12.35 9.26757 12.35 10.7667C12.35 12.8016 12.2115 12.6667 14.3 12.6667C15.8385 12.6667 15.8528 12.6651 16.0505 12.4723C16.2484 12.2796 16.25 12.2658 16.25 10.7667C16.25 8.73177 16.3884 8.86667 14.3 8.86667C12.7614 8.86667 12.7472 8.86825 12.5495 9.06102ZM17.7495 9.06102C17.5516 9.25371 17.55 9.26757 17.55 10.7667C17.55 12.8016 17.4115 12.6667 19.5 12.6667C21.5884 12.6667 21.45 12.8016 21.45 10.7667C21.45 8.73177 21.5884 8.86667 19.5 8.86667C17.9614 8.86667 17.9472 8.86825 17.7495 9.06102ZM22.9495 9.06102C22.7516 9.25371 22.75 9.26757 22.75 10.7667C22.75 12.8016 22.6115 12.6667 24.7 12.6667C26.7884 12.6667 26.65 12.8016 26.65 10.7667C26.65 8.73177 26.7884 8.86667 24.7 8.86667C23.1614 8.86667 23.1472 8.86825 22.9495 9.06102ZM14.95 10.7667V11.4H14.3H13.65V10.7667V10.1333H14.3H14.95V10.7667ZM20.15 10.7667V11.4H19.5H18.85V10.7667V10.1333H19.5H20.15V10.7667ZM25.35 10.7667V11.4H24.7H24.05V10.7667V10.1333H24.7H25.35V10.7667ZM9.1 24.7V36.7333H5.2H1.3V24.7V12.6667H5.2H9.1V24.7ZM37.7 24.7V36.7333H33.8H29.9V24.7V12.6667H33.8H37.7V24.7ZM12.5495 14.1277C12.3516 14.3204 12.35 14.3342 12.35 15.8333C12.35 17.8682 12.2115 17.7333 14.3 17.7333C15.8385 17.7333 15.8528 17.7318 16.0505 17.539C16.2484 17.3463 16.25 17.3324 16.25 15.8333C16.25 13.7984 16.3884 13.9333 14.3 13.9333C12.7614 13.9333 12.7472 13.9349 12.5495 14.1277ZM17.7495 14.1277C17.5516 14.3204 17.55 14.3342 17.55 15.8333C17.55 17.8682 17.4115 17.7333 19.5 17.7333C21.5884 17.7333 21.45 17.8682 21.45 15.8333C21.45 13.7984 21.5884 13.9333 19.5 13.9333C17.9614 13.9333 17.9472 13.9349 17.7495 14.1277ZM22.9495 14.1277C22.7516 14.3204 22.75 14.3342 22.75 15.8333C22.75 17.8682 22.6115 17.7333 24.7 17.7333C26.7884 17.7333 26.65 17.8682 26.65 15.8333C26.65 13.7984 26.7884 13.9333 24.7 13.9333C23.1614 13.9333 23.1472 13.9349 22.9495 14.1277ZM3.44947 15.3944C3.25163 15.587 3.25 15.6009 3.25 17.1C3.25 19.1349 3.11155 19 5.2 19C7.28845 19 7.15 19.1349 7.15 17.1C7.15 15.0651 7.28845 15.2 5.2 15.2C3.66145 15.2 3.64723 15.2016 3.44947 15.3944ZM14.95 15.8333V16.4667H14.3H13.65V15.8333V15.2H14.3H14.95V15.8333ZM20.15 15.8333V16.4667H19.5H18.85V15.8333V15.2H19.5H20.15V15.8333ZM25.35 15.8333V16.4667H24.7H24.05V15.8333V15.2H24.7H25.35V15.8333ZM32.0495 15.3944C31.8516 15.587 31.85 15.6009 31.85 17.1C31.85 19.1349 31.7115 19 33.8 19C35.3386 19 35.3528 18.9984 35.5505 18.8056C35.7484 18.613 35.75 18.5991 35.75 17.1C35.75 15.0651 35.8885 15.2 33.8 15.2C32.2614 15.2 32.2472 15.2016 32.0495 15.3944ZM5.85 17.1V17.7333H5.2H4.55V17.1V16.4667H5.2H5.85V17.1ZM34.45 17.1V17.7333H33.8H33.15V17.1V16.4667H33.8H34.45V17.1ZM12.5495 19.1944C12.3516 19.387 12.35 19.4009 12.35 20.9C12.35 22.9349 12.2115 22.8 14.3 22.8C16.3884 22.8 16.25 22.9349 16.25 20.9C16.25 18.8651 16.3884 19 14.3 19C12.7614 19 12.7472 19.0016 12.5495 19.1944ZM17.7495 19.1944C17.5516 19.387 17.55 19.4009 17.55 20.9C17.55 22.9349 17.4115 22.8 19.5 22.8C21.0385 22.8 21.0528 22.7984 21.2505 22.6056C21.4484 22.413 21.45 22.3991 21.45 20.9C21.45 18.8651 21.5884 19 19.5 19C17.9614 19 17.9472 19.0016 17.7495 19.1944ZM22.9495 19.1944C22.7516 19.387 22.75 19.4009 22.75 20.9C22.75 22.9349 22.6115 22.8 24.7 22.8C26.2385 22.8 26.2528 22.7984 26.4505 22.6056C26.6484 22.413 26.65 22.3991 26.65 20.9C26.65 18.8651 26.7884 19 24.7 19C23.1614 19 23.1472 19.0016 22.9495 19.1944ZM3.44947 20.461C3.25163 20.6537 3.25 20.6676 3.25 22.1667C3.25 24.2016 3.11155 24.0667 5.2 24.0667C7.28845 24.0667 7.15 24.2016 7.15 22.1667C7.15 20.1318 7.28845 20.2667 5.2 20.2667C3.66145 20.2667 3.64723 20.2682 3.44947 20.461ZM14.95 20.9V21.5333H14.3H13.65V20.9V20.2667H14.3H14.95V20.9ZM20.15 20.9V21.5333H19.5H18.85V20.9V20.2667H19.5H20.15V20.9ZM25.35 20.9V21.5333H24.7H24.05V20.9V20.2667H24.7H25.35V20.9ZM32.0495 20.461C31.8516 20.6537 31.85 20.6676 31.85 22.1667C31.85 24.2016 31.7115 24.0667 33.8 24.0667C35.3386 24.0667 35.3528 24.0651 35.5505 23.8723C35.7484 23.6796 35.75 23.6658 35.75 22.1667C35.75 20.1318 35.8885 20.2667 33.8 20.2667C32.2614 20.2667 32.2472 20.2682 32.0495 20.461ZM5.85 22.1667V22.8H5.2H4.55V22.1667V21.5333H5.2H5.85V22.1667ZM34.45 22.1667V22.8H33.8H33.15V22.1667V21.5333H33.8H34.45V22.1667ZM3.44947 25.5277C3.25163 25.7204 3.25 25.7342 3.25 27.2333C3.25 29.2682 3.11155 29.1333 5.2 29.1333C7.28845 29.1333 7.15 29.2682 7.15 27.2333C7.15 25.1984 7.28845 25.3333 5.2 25.3333C3.66145 25.3333 3.64723 25.3349 3.44947 25.5277ZM32.0495 25.5277C31.8516 25.7204 31.85 25.7342 31.85 27.2333C31.85 29.2682 31.7115 29.1333 33.8 29.1333C35.3386 29.1333 35.3528 29.1318 35.5505 28.939C35.7484 28.7463 35.75 28.7324 35.75 27.2333C35.75 25.1984 35.8885 25.3333 33.8 25.3333C32.2614 25.3333 32.2472 25.3349 32.0495 25.5277ZM5.85 27.2333V27.8667H5.2H4.55V27.2333V26.6H5.2H5.85V27.2333ZM26 26.9167V27.2333H19.5H13V26.9167V26.6H19.5H26V26.9167ZM34.45 27.2333V27.8667H33.8H33.15V27.2333V26.6H33.8H34.45V27.2333ZM18.85 32.6167V36.7333H16.575H14.3V32.6167V28.5H16.575H18.85V32.6167ZM24.7 32.6167V36.7333H22.425H20.15V32.6167V28.5H22.425H24.7V32.6167ZM3.44947 30.5944C3.25163 30.787 3.25 30.8009 3.25 32.3C3.25 34.3349 3.11155 34.2 5.2 34.2C7.28845 34.2 7.15 34.3349 7.15 32.3C7.15 30.2651 7.28845 30.4 5.2 30.4C3.66145 30.4 3.64723 30.4016 3.44947 30.5944ZM32.0495 30.5944C31.8516 30.787 31.85 30.8009 31.85 32.3C31.85 34.3349 31.7115 34.2 33.8 34.2C35.3386 34.2 35.3528 34.1984 35.5505 34.0056C35.7484 33.813 35.75 33.7991 35.75 32.3C35.75 30.2651 35.8885 30.4 33.8 30.4C32.2614 30.4 32.2472 30.4016 32.0495 30.5944ZM5.85 32.3V32.9333H5.2H4.55V32.3V31.6667H5.2H5.85V32.3ZM34.45 32.3V32.9333H33.8H33.15V32.3V31.6667H33.8H34.45V32.3Z" fill="#89B948"/>
</svg>
