<svg width="45" height="45" viewBox="0 0 45 45" fill="none" xmlns="http://www.w3.org/2000/svg">
<path fill-rule="evenodd" clip-rule="evenodd" d="M21.0938 0.0469125C13.6789 0.527498 7.11316 4.5129 3.25195 10.8767L2.78534 11.6458H1.94774C0.921709 11.6458 0.484541 11.8184 0.191953 12.3389L0 12.6804V22.4563V32.2322L0.191953 32.5737C0.484541 33.0942 0.921709 33.2668 1.94774 33.2668H2.78534L3.25195 34.0359C6.49072 39.3739 11.8248 43.1797 17.7998 44.4157C19.9998 44.8708 22.8945 45.0212 24.917 44.7856C31.9805 43.9627 37.9181 40.1976 41.6617 34.1677L42.2209 33.2668H43.0553C44.078 33.2668 44.5158 33.0937 44.808 32.5737L45 32.2322V22.4563V12.6804L44.808 12.3389C44.5155 11.8184 44.0783 11.6458 43.0523 11.6458H42.2147L41.748 10.8767C37.3756 3.67029 29.4341 -0.493703 21.0938 0.0469125ZM24.917 1.45923C30.0404 2.01522 35.0833 4.66776 38.4379 8.57116C39.2006 9.45859 40.4394 11.1639 40.5715 11.5083C40.6179 11.6291 40.4698 11.6458 39.351 11.6458H38.0778L37.7526 11.2488C37.5738 11.0306 37.3139 10.7933 37.1751 10.7215C36.8811 10.5695 36.3284 10.5517 35.975 10.6829C35.6418 10.8066 10.9192 35.5085 10.758 35.8788C10.5819 36.2831 10.6042 36.8631 10.8087 37.1985C11.0164 37.5392 11.788 38.1209 12.9052 38.779C15.132 40.0908 17.6374 40.9386 20.2588 41.2675C21.3994 41.4106 23.8592 41.3883 25.0135 41.2245C26.932 40.9521 28.7626 40.4131 30.5305 39.6002C31.3835 39.208 31.6406 38.9893 31.6406 38.6558C31.6406 38.3452 31.3208 38.0129 31.0219 38.0129C30.8917 38.0129 30.4141 38.1875 29.9605 38.4008C27.6057 39.5082 25.1804 40.0465 22.5439 40.0468C19.62 40.0472 17.3261 39.524 14.8096 38.283C13.4951 37.6347 11.9531 36.6679 11.9531 36.492C11.9531 36.4332 12.6552 35.685 13.5132 34.8293L15.0732 33.2734L17.2564 33.2482C19.4308 33.223 19.4403 33.222 19.6075 33.0154C19.825 32.7465 19.8203 32.4687 19.5932 32.1801L19.4111 31.9485H17.9035H16.396L17.0508 31.2893L17.7056 30.6301H28.1406C35.709 30.6301 38.6356 30.6029 38.7936 30.5308C39.0429 30.4173 39.1634 30.1499 39.2343 29.5532C39.2615 29.3235 39.3603 28.9873 39.4538 28.8061C39.8092 28.1177 40.7326 27.4724 41.3688 27.468C41.7287 27.4655 42.0984 27.3239 42.2435 27.133C42.4107 26.9129 42.4107 17.9997 42.2435 17.7795C42.0984 17.5887 41.7287 17.4471 41.3688 17.4446C40.7326 17.4402 39.8092 16.7949 39.4538 16.1065C39.3603 15.9253 39.2615 15.5891 39.2343 15.3594C39.1634 14.7627 39.0429 14.4953 38.7936 14.3818C38.6497 14.3162 37.809 14.2825 36.3189 14.2825H34.062L34.7168 13.6233L35.3716 12.9641H39.5266H43.6816V22.4563V31.9485H32.6578H21.6338L21.4517 32.1801C21.2246 32.4688 21.2199 32.7466 21.4375 33.0154L21.6055 33.2229L29.0016 33.2668L36.3976 33.3108L35.6139 34.194C35.1829 34.6797 34.3698 35.463 33.8072 35.9345C32.6885 36.8722 32.5571 37.0822 32.8464 37.4713C33.151 37.881 33.5209 37.8354 34.2367 37.2999C35.0619 36.6824 36.9333 34.7784 37.5293 33.9499L38.0127 33.2778L39.3185 33.2724C40.4681 33.2675 40.618 33.2833 40.5715 33.4043C40.4394 33.7487 39.2006 35.454 38.4379 36.3414C35.0817 40.2468 30.2331 42.8015 24.917 43.4656C23.9032 43.5922 21.2066 43.5927 20.127 43.4664C14.8707 42.8513 9.92364 40.2529 6.56209 36.3414C5.79938 35.454 4.56064 33.7487 4.42846 33.4043C4.38214 33.2835 4.53023 33.2668 5.64899 33.2668H6.92218L7.24737 33.6638C7.42623 33.882 7.68612 34.1193 7.8249 34.1911C8.14236 34.3553 8.70917 34.3587 9.07752 34.1987C9.23985 34.1282 11.5422 31.8893 14.48 28.9454C20.027 23.3868 19.8591 23.5867 19.3838 23.1115C18.9703 22.6979 18.8033 22.7843 17.4783 24.0972C16.6646 24.9035 16.2506 25.2576 16.2198 25.1739C15.5408 23.3306 15.4953 21.8055 16.0707 20.1795C16.4347 19.1509 16.8274 18.5489 17.71 17.6663C18.5926 16.7837 19.1946 16.391 20.2232 16.027C21.8499 15.4513 23.3758 15.4971 25.2201 16.177C25.3056 16.2085 24.5192 17.0525 22.8251 18.7474C20.5056 21.0679 20.3027 21.295 20.3027 21.5711C20.3027 21.974 20.5162 22.1926 20.9099 22.1926C21.2114 22.1926 21.5254 21.8931 27.7037 15.7107C31.3282 12.0838 34.2219 9.11977 34.2733 8.98135C34.4186 8.59032 34.3821 8.02703 34.1913 7.71405C33.9836 7.37339 33.212 6.79173 32.0948 6.1336C29.8583 4.81612 27.3676 3.97307 24.7412 3.64472C23.5728 3.49864 21.2195 3.51789 20.034 3.68321C16.3255 4.20036 13.0732 5.65275 10.2103 8.0701C9.29997 8.83888 8.08102 10.1307 7.45919 10.9858L6.9873 11.6348L5.68151 11.6402C4.5319 11.645 4.38205 11.6293 4.42846 11.5083C4.56064 11.1639 5.79938 9.45859 6.56209 8.57116C8.39109 6.44289 10.7562 4.6472 13.4033 3.377C16.94 1.68001 20.8895 1.02215 24.917 1.45923ZM24.126 4.9244C26.0203 5.0449 28.2459 5.67068 30.1904 6.62957C31.5049 7.27785 33.0469 8.24465 33.0469 8.4206C33.0469 8.4794 32.3443 9.2292 31.4856 10.0869L29.9243 11.6465L19.2669 11.6241L8.60968 11.6018L9.3179 10.7921C12.081 7.63293 16.2356 5.44885 20.3906 4.97125C21.8139 4.8076 22.2102 4.80259 24.126 4.9244ZM27.9492 13.6233L27.2944 14.2825H16.8594C9.29101 14.2825 6.36442 14.3097 6.2064 14.3818C5.95705 14.4953 5.83655 14.7627 5.76571 15.3594C5.73847 15.5891 5.63968 15.9253 5.54616 16.1065C5.19082 16.7949 4.26735 17.4402 3.6312 17.4446C3.27129 17.4471 2.90162 17.5887 2.75651 17.7795C2.58926 17.9997 2.58926 26.9129 2.75651 27.133C2.90162 27.3239 3.27129 27.4655 3.6312 27.468C4.26735 27.4724 5.19082 28.1177 5.54616 28.8061C5.63968 28.9873 5.73847 29.3235 5.76571 29.5532C5.83655 30.1499 5.95705 30.4173 6.2064 30.5308C6.35027 30.5964 7.19104 30.6301 8.68113 30.6301H10.938L10.2832 31.2893L9.62842 31.9485H5.47339H1.31836V22.4563V12.9641H14.9612H28.604L27.9492 13.6233ZM18.0176 15.6331C18.0176 15.6508 17.8642 15.7669 17.6767 15.8909C17.187 16.215 16.2279 17.1978 15.8321 17.7811C15.2837 18.5895 14.851 19.5286 14.6124 20.4287C14.2929 21.6345 14.293 23.2787 14.6129 24.4856C14.7357 24.9491 14.9426 25.5384 15.0726 25.795L15.3091 26.2615L13.7849 27.7878L12.2607 29.3141L9.6837 29.2909L7.10666 29.2678L6.9336 28.7551C6.5359 27.5769 5.67439 26.7055 4.53111 26.3251L3.95508 26.1334V22.4563V18.7792L4.53111 18.5875C5.80781 18.1627 6.65209 17.2106 7.08214 15.7107C7.10692 15.6243 8.27938 15.6008 12.5656 15.6008C15.5642 15.6008 18.0176 15.6153 18.0176 15.6331ZM38.0508 16.1282C38.4064 17.2733 39.324 18.2065 40.4689 18.5875L41.0449 18.7792V22.4563V26.1334L40.4723 26.3239C39.3001 26.714 38.2024 27.8737 38.004 28.9319C37.9724 29.1002 37.9021 29.2549 37.8478 29.2756C37.7935 29.2964 35.3276 29.3032 32.3683 29.2906L26.9874 29.2678L27.6093 28.7844C28.8837 27.7938 30.0147 26.0105 30.4243 24.3459C30.8246 22.7191 30.6105 20.4657 29.9274 19.1176L29.6909 18.6511L31.2151 17.1248L32.7393 15.5985L35.32 15.6217L37.9007 15.6448L38.0508 16.1282ZM28.9926 20.3426C29.4512 21.7292 29.4282 23.3234 28.9293 24.7331C28.5653 25.7617 28.1726 26.3637 27.29 27.2463C26.4074 28.1289 25.8054 28.5216 24.7768 28.8856C23.15 29.4613 21.6241 29.4155 19.7797 28.7356C19.6945 28.7041 21.1536 27.1869 24.1719 24.1682C26.6578 21.682 28.7171 19.6766 28.7483 19.7117C28.7795 19.7469 28.8895 20.0308 28.9926 20.3426Z" fill="#89B948"/>
</svg>
