<svg width="49" height="49" viewBox="0 0 49 49" fill="none" xmlns="http://www.w3.org/2000/svg">
<path fill-rule="evenodd" clip-rule="evenodd" d="M18.4907 0.0619846C18.3175 0.10352 18.0854 0.217981 17.9751 0.316268C17.5674 0.679461 17.5137 1.00054 17.5137 3.07596C17.5137 4.15674 17.485 5.04094 17.4499 5.04094C17.1967 5.04094 9.37048 6.41313 9.16166 6.49419C9.01581 6.55075 8.78976 6.72398 8.65922 6.87901C8.36197 7.23225 8.35345 7.66321 8.6152 9.10306C8.71989 9.67919 8.77311 10.1784 8.73339 10.2124C8.69367 10.2464 7.06768 10.8186 5.12012 11.4842C0.481578 13.069 0.476697 13.071 0.215332 13.4588C0.0969473 13.6345 0 13.9025 0 14.0544C0 14.3487 5.18079 28.8672 5.41469 29.2284C5.60016 29.5147 6.00001 29.6062 6.30856 29.4331C6.86421 29.1212 6.92929 29.3559 4.12978 21.5727C2.70065 17.5991 1.53125 14.325 1.53125 14.297C1.53125 14.2689 1.77893 14.159 2.08154 14.0525C3.65146 13.5007 9.04538 11.6626 9.05457 11.6763C9.06041 11.6851 10.2589 18.6691 11.7179 27.1962C13.4644 37.4033 14.4262 42.7982 14.5332 42.9872C14.6226 43.1451 14.8612 43.3557 15.0633 43.4551C15.3916 43.6166 15.4986 43.624 16.0656 43.5252C20.4823 42.7543 29.0298 41.3122 29.0517 41.3342C29.0883 41.3707 13.4363 46.9975 13.337 46.9836C13.2962 46.9779 12.0284 43.5382 10.5194 39.3399C9.01045 35.1416 7.72602 31.6269 7.66525 31.5296C7.23229 30.8362 6.19056 31.332 6.41441 32.1249C6.53164 32.5402 11.8748 47.3703 12.0582 47.7895C12.1655 48.0346 12.3458 48.2476 12.524 48.3398C13.1244 48.6503 12.7199 48.773 21.4375 45.6378C27.94 43.2994 29.8837 42.5998 33.5918 41.2632C37.2617 39.9404 37.5543 39.8512 39.0947 39.5855C40.6988 39.3088 40.7728 39.3049 44.3584 39.3036C48.4354 39.3022 48.503 39.292 48.8323 38.6327C48.9897 38.3179 48.9997 37.3437 48.9998 22.4013L49 6.50481L48.7847 6.2068C48.5647 5.90246 42.8443 0.43561 42.4631 0.16544C42.276 0.0327952 40.9686 0.0148987 30.5293 0.00150022C24.0813 -0.00682596 18.6639 0.0203537 18.4907 0.0619846ZM40.8652 3.94035C40.9199 6.78092 40.9501 6.90026 41.7189 7.30681C42.1304 7.52444 42.198 7.52922 44.8519 7.52922H47.5645V22.6982V37.8671H33.2568H18.9492V30.6964V23.5255L18.697 23.3272C18.5584 23.2181 18.3881 23.1288 18.3187 23.1288C18.0657 23.1288 17.7236 23.347 17.6199 23.5745C17.5451 23.7388 17.5137 25.9325 17.5137 30.9986C17.5137 38.0457 17.5176 38.1976 17.7093 38.5936C18.0692 39.3371 17.6942 39.3016 25.2801 39.3112L32.0127 39.3197L23.9039 40.7169C19.444 41.4853 15.7772 42.0951 15.7554 42.0721C15.706 42.0199 9.96872 8.56119 9.93197 8.1111L9.90527 7.78379L13.3984 7.18249C15.3197 6.85183 17.0316 6.55573 17.2026 6.52453L17.5137 6.46778V13.5891C17.5137 20.6487 17.5154 20.7126 17.7121 20.9626C17.9606 21.2786 18.4728 21.3084 18.7578 21.0234C18.9467 20.8344 18.9492 20.7044 18.9492 11.1819C18.9492 5.87432 18.9781 1.50289 19.0134 1.46758C19.0487 1.43226 23.969 1.41437 29.9475 1.42776L40.8174 1.45207L40.8652 3.94035ZM45.727 5.20526L46.6553 6.08736L44.502 6.06659L42.3486 6.04582L42.3228 3.9994L42.2969 1.95308L43.5479 3.13807C44.2359 3.78991 45.2166 4.72014 45.727 5.20526ZM22.9175 10.4908C22.4525 10.6808 22.3044 11.2804 22.6326 11.6432C22.8054 11.834 22.9059 11.8359 33.4082 11.8359H44.0096L44.2079 11.5837C44.4662 11.2554 44.4582 11.0456 44.1753 10.7167L43.9443 10.4482L33.5283 10.4296C27.7996 10.4195 23.0246 10.4469 22.9175 10.4908ZM22.6763 15.7448C22.3608 16.0002 22.3809 16.489 22.7189 16.7797L22.9795 17.0038H33.3534C40.7524 17.0038 43.7942 16.9734 43.9606 16.8976C44.188 16.7939 44.4062 16.4518 44.4062 16.1988C44.4062 16.1294 44.317 15.9591 44.2079 15.8205L44.0096 15.5683H33.4519C23.3342 15.5683 22.8852 15.5757 22.6763 15.7448ZM22.7521 20.7602C22.3638 21.055 22.4087 21.8551 22.8224 22.0139C22.9115 22.0482 27.6986 22.0761 33.4604 22.0761H43.9364L44.1713 21.8411C44.4708 21.5418 44.4708 21.1749 44.1713 20.8755L43.9364 20.6405H33.4231C25.1602 20.6405 22.8759 20.6662 22.7521 20.7602ZM22.7189 25.937C22.3809 26.2276 22.3608 26.7165 22.6763 26.9719C22.8852 27.141 23.3342 27.1484 33.4519 27.1484H44.0096L44.2079 26.8962C44.317 26.7575 44.4062 26.5873 44.4062 26.5179C44.4062 26.2648 44.188 25.9228 43.9606 25.819C43.7942 25.7432 40.7524 25.7128 33.3534 25.7128H22.9795L22.7189 25.937ZM22.6326 31.0734C22.3937 31.3375 22.4105 31.8006 22.6683 32.0585L22.8784 32.2685H33.4113H43.9443L44.1753 31.9999C44.4582 31.671 44.4662 31.4612 44.2079 31.133L44.0096 30.8808H33.4082C22.9059 30.8808 22.8054 30.8826 22.6326 31.0734Z" fill="#89B948"/>
</svg>
