<svg width="27" height="27" viewBox="0 0 27 27" fill="none" xmlns="http://www.w3.org/2000/svg">
<path fill-rule="evenodd" clip-rule="evenodd" d="M5.696 0.0564554C4.79686 0.401949 3.11993 2.05378 1.56058 4.13006C0.942686 4.95283 0.458347 5.7012 0.203941 6.22639L0 6.64729L0.0651486 7.21191C0.581668 11.6904 4.30718 17.5402 9.30438 21.7192C12.8283 24.6662 16.6329 26.5718 19.7666 26.9594C20.2829 27.0232 20.3134 27.0207 20.6391 26.8873C21.9689 26.3427 25.107 23.8182 26.2946 22.3377C27.0487 21.3976 27.1595 20.9455 26.8101 20.2351C26.5724 19.7518 26.3207 19.5304 24.9851 18.63C22.2624 16.7944 20.3162 15.8005 19.4478 15.802C18.7995 15.8031 18.4322 16.0715 17.3765 17.3153C17.0054 17.7526 16.6689 18.1103 16.6289 18.1103C16.5012 18.1103 15.5939 17.7405 15.0471 17.4656C13.1157 16.4947 11.4978 15.0623 10.3048 13.2672C9.86214 12.6012 9.22781 11.3569 9.02455 10.7559L8.88941 10.3563L9.11017 10.1592C9.23158 10.0508 9.59704 9.73454 9.92222 9.4564C10.9272 8.59703 11.1636 8.26387 11.2051 7.64852C11.2228 7.3853 11.1964 7.19428 11.1017 6.89919C10.9286 6.36037 10.319 5.12656 9.75446 4.17236C9.11383 3.08959 7.72782 1.00936 7.41496 0.660998C6.95577 0.14977 6.17117 -0.126174 5.696 0.0564554Z" fill="white"/>
</svg>
