<svg width="43" height="43" viewBox="0 0 43 43" fill="none" xmlns="http://www.w3.org/2000/svg">
<path fill-rule="evenodd" clip-rule="evenodd" d="M13.3358 0.139957C11.4495 0.458156 9.67117 1.07652 8.07616 1.96878C6.91189 2.62005 6.69125 2.83247 6.69125 3.30212C6.69125 4.15178 7.4172 4.3277 8.42221 3.72168C10.7481 2.31915 13.0404 1.67548 15.7616 1.6605C17.5843 1.65059 18.9382 1.85266 20.4908 2.36661C25.309 3.96151 28.8227 7.82947 29.9403 12.769C30.7017 16.1349 30.1449 19.9849 28.4726 22.916C27.9088 23.9041 27.8813 24.2104 28.3123 24.7012C28.5424 24.9632 28.6288 25.1685 28.6288 25.4531C28.6288 25.8143 28.5233 25.9502 27.2676 27.2058C26.012 28.4615 25.8761 28.5669 25.5149 28.5669C25.2303 28.5669 25.025 28.4806 24.763 28.2505C24.2722 27.8195 23.9659 27.847 22.9778 28.4108C20.7517 29.6808 18.3714 30.2212 15.4614 30.1171C13.1803 30.0356 11.6965 29.6788 9.67496 28.7259C6.62998 27.2904 4.21411 24.7897 2.86791 21.6799C1.15393 17.7206 1.32648 12.8773 3.31267 9.19508C3.79508 8.3006 3.82989 8.0402 3.51949 7.64564C3.22945 7.27682 2.67237 7.26374 2.31863 7.61748C1.97975 7.95635 1.17788 9.63552 0.801035 10.7955C-0.74598 15.557 -0.0299528 20.7486 2.75611 24.9701C3.53257 26.1468 5.7066 28.3251 6.87256 29.0946L7.73951 29.6668L7.49419 30.0924C7.35929 30.3266 7.04985 30.9041 6.80653 31.3758L6.3642 32.2336L5.92133 32.1308C4.22149 31.7365 2.14207 32.8434 1.32258 34.5787C1.0819 35.0884 1.04868 35.2931 1.04868 36.2662C1.04868 37.2469 1.08105 37.4426 1.33133 37.9767C1.66113 38.6803 2.41502 39.5257 3.03877 39.8911C5.14593 41.1261 7.83791 40.2977 8.93057 38.0781C9.25362 37.422 9.27524 37.3084 9.27524 36.2684C9.27524 35.2872 9.24275 35.0895 8.99469 34.5602C8.84029 34.231 8.51913 33.7501 8.28077 33.4916L7.84751 33.0215L8.49045 31.7974C8.84408 31.124 9.16945 30.5509 9.21343 30.5237C9.25741 30.4966 9.62961 30.6111 10.0405 30.7784C12.2578 31.6807 15.1491 32.0941 17.5018 31.8452C19.5468 31.6288 21.7826 30.9787 23.3446 30.1461L23.9381 29.8298L24.3545 30.0421C24.8228 30.2808 25.9593 30.3359 26.3295 30.1377C26.5231 30.0341 26.6375 30.1106 27.3389 30.812C28.1194 31.5925 28.1283 31.6075 28.0102 31.9464C27.6445 32.9955 28.011 33.9484 29.2356 35.1324C30.1603 36.0263 30.49 36.1439 30.9279 35.7359C31.4736 35.2276 31.3247 34.7746 30.2714 33.738C29.2291 32.7121 29.2361 32.6846 30.9913 30.9295C32.2483 29.6724 32.444 29.5162 32.7613 29.5162C33.0898 29.5162 33.4002 29.7995 36.6609 33.0757C40.1086 36.5396 40.2073 36.6504 40.3348 37.1964C40.7231 38.8588 39.5912 40.3132 37.91 40.3124C37.1493 40.312 36.5725 40.0792 36.117 39.5886C35.82 39.2689 35.3691 39.0084 35.1122 39.0084C34.8389 39.0084 34.3241 39.5916 34.3241 39.9013C34.3241 40.284 35.124 41.1143 35.8823 41.5184C37.1653 42.2023 38.6554 42.202 39.9393 41.5176C41.9006 40.4722 42.6613 37.9617 41.6383 35.9098C41.2441 35.119 34.596 28.4375 33.8495 28.0819C33.2709 27.8063 32.5631 27.7549 32.0082 27.9484C31.6693 28.0665 31.6543 28.0576 30.8738 27.2771C30.1724 26.5757 30.0959 26.4613 30.1995 26.2677C30.3948 25.9027 30.3427 24.7612 30.11 24.3044L29.9036 23.8997L30.3656 22.937C31.6127 20.3387 32.152 17.425 31.9044 14.6242C31.8371 13.864 31.7727 13.1961 31.7611 13.1401C31.7496 13.0842 32.2573 12.9154 32.8894 12.765L34.0388 12.4916L34.2077 12.7373C35.8773 15.1639 38.7593 15.6076 40.7508 13.7448C41.407 13.131 41.7637 12.5314 41.9837 11.6726C42.456 9.82927 41.4824 7.78802 39.7163 6.91854C39.0666 6.59876 38.9503 6.57671 37.9122 6.57671C36.9108 6.57671 36.744 6.60551 36.2023 6.8715C34.8755 7.52309 33.8891 8.85885 33.7361 10.2113L33.666 10.8303L32.5141 11.1161C31.8805 11.2732 31.3468 11.3841 31.3281 11.3624C31.3093 11.3406 31.1869 10.9906 31.0558 10.5845C29.8805 6.94238 26.8358 3.46813 23.2498 1.67727C21.7322 0.919265 20.0961 0.400992 18.3983 0.140062C17.1827 -0.0466172 14.4426 -0.0467226 13.3358 0.139957ZM14.5487 3.32712C10.2932 3.87861 6.62175 6.4434 4.76381 10.1627C4.079 11.5333 3.57096 13.3726 3.43596 14.9701C3.11449 18.7719 4.53853 22.514 7.28167 25.0757C13.0139 30.429 22.0775 29.4432 26.3889 22.9975C29.8387 17.84 29.2367 11.4677 24.8867 7.09752C22.8436 5.04478 20.1607 3.71007 17.3963 3.37141C16.4867 3.25993 15.219 3.24021 14.5487 3.32712ZM4.37516 4.92149C4.0287 5.26795 3.9863 5.46043 4.1772 5.81903C4.4588 6.34764 4.99605 6.4626 5.46413 6.09441C6.00244 5.67106 5.74109 4.80273 5.03434 4.66625C4.75105 4.61152 4.64347 4.65318 4.37516 4.92149ZM18.5163 5.2959C20.9376 5.91564 23.1974 7.43133 24.7489 9.47595C25.2908 10.1902 26.3084 12.1087 26.3084 12.416C26.3084 12.6804 19.8806 14.2035 19.7192 13.9772C19.6598 13.894 19.4574 13.6061 19.2695 13.3374C18.8937 12.8002 17.8762 12.0836 17.1945 11.876C16.9575 11.8037 16.3601 11.7469 15.867 11.7496C15.0721 11.754 14.8877 11.7945 14.2387 12.1073C12.4341 12.9771 11.4613 14.8793 11.8601 16.7584C11.9987 17.4115 12.5121 18.3848 12.9737 18.8696C13.1148 19.0178 13.2303 19.1712 13.2303 19.2105C13.2303 19.3492 10.148 25.0865 10.0734 25.0865C9.7142 25.0865 7.76999 23.2841 7.0585 22.2916C4.28551 18.423 4.44614 12.9787 7.44831 9.08413C7.96584 8.41282 9.12695 7.30519 9.79562 6.84513C10.9688 6.03809 12.9098 5.27112 14.3377 5.05058C15.3977 4.88689 17.3705 5.0027 18.5163 5.2959ZM39.0408 8.48032C40.334 9.12473 40.8031 10.7178 40.0687 11.9709C39.102 13.6204 36.718 13.6204 35.7513 11.9709C34.4919 9.82188 36.8059 7.36657 39.0408 8.48032ZM16.9217 13.5989C18.9705 14.5263 19.0022 17.25 16.9752 18.194C16.2925 18.5119 15.6479 18.5108 14.9706 18.1906C12.9554 17.2379 12.9554 14.5835 14.9706 13.6308C15.6227 13.3225 16.2871 13.3116 16.9217 13.5989ZM26.8946 14.9297C27.0702 16.5689 26.6849 18.8012 25.9529 20.3854C24.3887 23.7709 21.311 26.1384 17.7127 26.7241C16.5298 26.9167 15.6654 26.919 14.4261 26.7328C13.4279 26.5829 11.6483 26.0704 11.6483 25.9329C11.6483 25.8899 12.3517 24.531 13.2113 22.913C14.6767 20.1551 14.7904 19.9745 15.0307 20.024C15.4939 20.1193 16.7551 20.0712 17.1945 19.9415C17.8623 19.7443 18.8766 19.0333 19.2882 18.4739C19.7258 17.8791 20.0594 17.0549 20.1681 16.3006L20.2456 15.7618L23.4088 15.0017C25.1486 14.5837 26.6277 14.2374 26.6955 14.2324C26.7717 14.2267 26.848 14.4943 26.8946 14.9297ZM29.8183 29.7506L29.215 30.3603L28.5527 29.704L27.8905 29.0477L28.4939 28.438L29.0972 27.8282L29.7595 28.4846L30.4217 29.1409L29.8183 29.7506ZM5.85816 33.8572C6.49898 34.0756 7.05702 34.5371 7.36552 35.104C7.63077 35.5913 7.65851 35.7334 7.62349 36.4261C7.59038 37.083 7.53553 37.2715 7.26638 37.6545C7.09151 37.9033 6.71625 38.2504 6.43254 38.4258C5.9843 38.7029 5.81797 38.7447 5.16196 38.7447C4.50563 38.7447 4.33941 38.7029 3.88811 38.4245C2.74398 37.7188 2.33592 36.2476 2.96409 35.0935C3.54417 34.0277 4.79313 33.4941 5.85816 33.8572ZM32.2147 36.899C31.6836 37.4301 32.0526 38.3123 32.8061 38.3123C33.2754 38.3123 33.5858 37.9833 33.5858 37.4858C33.5858 36.8022 32.6934 36.4203 32.2147 36.899Z" fill="#89B948"/>
</svg>
