<svg width="25" height="24" viewBox="0 0 25 24" fill="none" xmlns="http://www.w3.org/2000/svg">
<path fill-rule="evenodd" clip-rule="evenodd" d="M21.8001 12.0004C21.8001 17.3023 17.502 21.6004 12.2001 21.6004C6.89816 21.6004 2.6001 17.3023 2.6001 12.0004C2.6001 6.69846 6.89816 2.40039 12.2001 2.40039C17.502 2.40039 21.8001 6.69846 21.8001 12.0004ZM14.6001 8.40039C14.6001 9.72587 13.5256 10.8004 12.2001 10.8004C10.8746 10.8004 9.8001 9.72587 9.8001 8.40039C9.8001 7.07491 10.8746 6.00039 12.2001 6.00039C13.5256 6.00039 14.6001 7.07491 14.6001 8.40039ZM12.2 13.2004C9.77897 13.2004 7.69283 14.6343 6.74458 16.6993C8.06493 18.2308 10.0193 19.2004 12.2001 19.2004C14.3808 19.2004 16.3351 18.2309 17.6555 16.6993C16.7073 14.6344 14.6211 13.2004 12.2 13.2004Z" fill="#63767E" fill-opacity="0.4"/>
</svg>
