<svg width="25" height="24" viewBox="0 0 25 24" fill="none" xmlns="http://www.w3.org/2000/svg">
<path fill-rule="evenodd" clip-rule="evenodd" d="M5.45062 0.0971719L5.32197 0.194297V1.07334C5.32197 1.93163 5.32465 1.95483 5.43495 2.05434C5.52098 2.13192 5.60843 2.15625 5.80114 2.15625H6.05435V2.53125V2.90625H4.68401C3.81522 2.90625 3.27843 2.92439 3.21735 2.95575C3.10866 3.01158 1.51359 6.04153 1.51359 6.19209C1.51359 6.24347 1.56754 6.33727 1.63345 6.40055C1.74844 6.51098 1.77905 6.51562 2.39025 6.51562H3.02717V9.09375V11.6719H2.37653C1.7645 11.6719 1.71987 11.6781 1.62423 11.7773C1.48908 11.9175 0 14.7913 0 14.912C0 15.2002 0.210682 15.2812 0.95937 15.2812H1.51359V17.7025V20.1238L1.26707 20.374C0.94731 20.6986 0.728572 21.1454 0.695469 21.5416L0.670177 21.8438H0.454955C0.291488 21.8438 0.210828 21.8715 0.119866 21.9588C0.00141593 22.0725 0 22.084 0 22.9219C0 23.7597 0.00141593 23.7712 0.119866 23.8849L0.239684 24H12.4993H24.7589L24.8787 23.8849C24.9972 23.7712 24.9986 23.7597 24.9986 22.9219C24.9986 21.7635 25.0931 21.8438 23.7294 21.8438H22.6999L22.7141 21.4617L22.7282 21.0796L23.0212 21.0024C24.2377 20.6816 25.0673 19.5798 24.9818 18.3984C24.9363 17.7694 24.7001 17.2502 24.2525 16.7954L24.0127 16.5518L24.1151 16.2679C24.2479 15.8995 24.2509 15.4172 24.1226 15.0668C23.9315 14.5448 23.4643 14.0903 22.9601 13.9362L22.7038 13.8579V13.1164V12.375L23.6437 12.3703C24.1606 12.3677 24.6365 12.3514 24.7013 12.3341C24.8753 12.2873 25.0182 12.0815 24.9795 11.9333C24.9381 11.775 21.2678 7.07344 21.1268 6.9982C21.0677 6.96666 20.9799 6.94008 20.9317 6.93914C20.8001 6.93666 20.6043 7.14909 20.6043 7.29441C20.6043 7.38802 21.0324 7.96941 22.24 9.51562C23.1396 10.6676 23.8756 11.624 23.8756 11.6409C23.8756 11.658 23.5805 11.6719 23.2197 11.6719H22.5638L19.5507 7.58995C17.3873 4.65933 16.5018 3.49505 16.4108 3.46181C16.32 3.42867 16.2468 3.43308 16.1526 3.47733C16.0668 3.51759 14.9666 4.93209 12.9875 7.54688C11.319 9.75117 9.9264 11.5817 9.89276 11.6148C9.84818 11.6587 9.67592 11.6714 9.25847 11.6617L8.6854 11.6484L12.3448 6.95358C14.3574 4.37138 16.0491 2.23566 16.1039 2.20748C16.2782 2.11795 16.4284 2.1495 16.5847 2.30859C16.667 2.39236 17.3987 3.31523 18.2106 4.35938C19.0224 5.40352 19.7308 6.2947 19.7847 6.33984C20.0033 6.5227 20.3602 6.3563 20.3602 6.07153C20.3602 5.9693 19.9768 5.4472 18.7169 3.83395C16.9399 1.5585 16.9072 1.52489 16.4167 1.46911C15.8773 1.4078 15.6008 1.59356 14.9232 2.47266L14.589 2.90625H12.2014H9.8139V2.53125V2.15625H10.0846C10.307 2.15625 10.3769 2.13567 10.4752 2.04117C10.5937 1.9275 10.5951 1.91597 10.5951 1.07812C10.5951 0.240281 10.5937 0.22875 10.4752 0.115078L10.3554 0H7.96733C5.62532 0 5.57679 0.001875 5.45062 0.0971719ZM9.86273 1.07812V1.45312H7.95854H6.05435V1.07812V0.703125H7.95854H9.86273V1.07812ZM9.08152 2.53125V2.90625H7.93413H6.78673V2.53125V2.15625H7.93413H9.08152V2.53125ZM13.9787 3.67322C13.9572 3.70837 13.5771 4.20323 13.134 4.77291L12.3284 5.80875L10.4918 5.81063C8.70928 5.81245 8.65147 5.81536 8.52662 5.90967C8.3654 6.03141 8.35022 6.28228 8.49562 6.42188C8.58922 6.51173 8.65835 6.51562 10.1597 6.51562C11.2187 6.51562 11.7208 6.53137 11.7094 6.56419C11.7001 6.59091 10.8065 7.7513 9.72358 9.14283L7.75459 11.6729L5.76931 11.6607L3.78397 11.6484L3.77132 9.08203L3.75873 6.51562H5.53773H7.31673L7.4179 6.39211C7.54406 6.23813 7.5467 6.08995 7.42581 5.94661L7.3325 5.83594L4.91208 5.82295L2.49171 5.80997L3.06409 4.70967L3.63652 3.60938H8.82714C13.1944 3.60938 14.0116 3.6195 13.9787 3.67322ZM19.1827 8.304L21.9714 12.0846V12.9735V13.8624L21.6664 13.9692C21.2483 14.1156 20.7663 14.573 20.605 14.9766C20.4511 15.3618 20.4495 15.9004 20.6013 16.2787L20.71 16.5495L20.4359 16.8337C19.6855 17.6118 19.5165 18.6832 19.9896 19.6641C20.2977 20.3031 21.0857 20.8991 21.7883 21.0246L21.9714 21.0573V21.4505V21.8438H20.9771C19.6607 21.8438 19.7255 21.8011 19.7255 22.6675V23.2969H19.3349H18.9443V19.7876C18.9443 16.3083 18.9434 16.2772 18.843 16.1548L18.7419 16.0312H16.3041C13.9315 16.0312 13.8638 16.0337 13.7688 16.125C13.6728 16.2171 13.6711 16.2812 13.6711 19.7578V23.2969H12.1331H10.5951V21.6073V19.9176L10.4752 19.8026C10.3225 19.6559 10.1353 19.6559 9.9826 19.8026L9.86273 19.9176V21.6073V23.2969H9.08152H8.30032V22.6788C8.30032 22.1087 8.29206 22.0523 8.19417 21.9522C8.1034 21.8595 8.03988 21.8438 7.7566 21.8438H7.42522L7.37385 21.6607C7.34563 21.56 7.23382 21.3501 7.12543 21.1943C6.68659 20.5633 5.86041 20.2648 5.08258 20.4561L4.77141 20.5326L4.52182 20.3063C3.9511 19.7886 3.23727 19.5776 2.47789 19.7021L2.24597 19.7401V17.5107V15.2812H6.05435H9.86273V16.9688C9.86273 18.5938 9.86634 18.6597 9.96038 18.75C10.1058 18.8896 10.3671 18.875 10.4939 18.7202C10.5941 18.5979 10.5951 18.5643 10.5951 15.294V11.9911L10.8798 11.6089C14.8603 6.26348 16.2784 4.40522 16.3338 4.46194C16.3669 4.49578 17.6488 6.22467 19.1827 8.304ZM4.75384 7.31948C4.55463 7.41394 4.54076 7.53084 4.54076 9.11306C4.54076 10.5747 4.54433 10.6323 4.64198 10.7515L4.74314 10.875H6.4241C8.03993 10.875 8.10877 10.8714 8.20267 10.7812C8.29651 10.6912 8.30032 10.625 8.30032 9.07758C8.30032 7.50075 8.29822 7.46583 8.19759 7.37836C8.10145 7.29473 7.99169 7.28845 6.47649 7.27955C5.42025 7.27336 4.8219 7.28723 4.75384 7.31948ZM7.56794 9.07031V10.1719H6.42054H5.27314V9.07031V7.96875H6.42054H7.56794V9.07031ZM13.9152 8.75133C13.875 8.76591 13.8035 8.81002 13.7566 8.8493C13.6773 8.91558 13.6711 9.09127 13.6711 11.2734C13.6711 13.6057 13.672 13.6269 13.7739 13.7154C13.872 13.8007 13.9853 13.8047 16.2926 13.8047H18.7086L18.8264 13.6732L18.9443 13.5416V11.2734V9.00525L18.8264 8.87372L18.7086 8.74219L16.3485 8.73352C15.0505 8.72873 13.9555 8.73675 13.9152 8.75133ZM18.1875 11.2734V13.1016L16.2955 13.1138L14.4035 13.1261V11.2734V9.4208L16.2955 9.43303L18.1875 9.44531V11.2734ZM9.86273 13.4766V14.5781H5.41962C2.97591 14.5781 0.976508 14.5674 0.976508 14.5543C0.976508 14.5412 1.22928 14.0455 1.5382 13.4528L2.09988 12.375H5.98131H9.86273V13.4766ZM22.657 14.5779C23.4041 14.7772 23.7178 15.6746 23.2625 16.31C23.0384 16.6228 23.0445 16.7374 23.2952 16.931C23.7847 17.3086 23.8827 17.4147 24.059 17.7571C24.2302 18.0898 24.2417 18.1392 24.24 18.5366C24.2387 18.8665 24.2133 19.0213 24.126 19.2321C23.9236 19.7211 23.3507 20.206 22.8362 20.3237L22.7 20.3548L22.7141 19.9169L22.7282 19.4789L23.2594 19.1426C23.5516 18.9576 23.8094 18.7778 23.8324 18.743C23.9211 18.6085 23.8794 18.3847 23.747 18.2847C23.5657 18.1478 23.4961 18.1602 23.1146 18.3975C22.9289 18.5129 22.7606 18.6078 22.7404 18.6084C22.7203 18.6089 22.7038 17.9043 22.7038 17.0425V15.4755L22.5752 15.3784C22.5044 15.325 22.4175 15.2812 22.3821 15.2812C22.2711 15.2812 22.076 15.3845 22.0379 15.4634C22.0179 15.505 21.9891 15.8133 21.9742 16.1484L21.947 16.7578L21.6454 16.472C21.4022 16.2415 21.3283 16.1353 21.2643 15.9237C21.0188 15.1132 21.8073 14.3513 22.657 14.5779ZM3.90603 16.125C3.81214 16.2151 3.80838 16.2812 3.80838 17.8325V19.4463L3.93704 19.5435C4.06242 19.6381 4.11637 19.6406 6.05435 19.6406C7.99233 19.6406 8.04628 19.6381 8.17166 19.5435L8.30032 19.4463V17.8325C8.30032 16.2812 8.29656 16.2151 8.20267 16.125C8.10809 16.0342 8.03993 16.0312 6.05435 16.0312C4.06877 16.0312 4.00061 16.0342 3.90603 16.125ZM7.56794 17.8359V18.9375H6.05435H4.54076V17.8359V16.7344H6.05435H7.56794V17.8359ZM18.2119 20.0156V23.2969H16.3077H14.4035V20.0156V16.7344H16.3077H18.2119V20.0156ZM21.6301 17.3555L21.9661 17.6016L21.9687 18.9758L21.9714 20.3501L21.8616 20.3197C21.0867 20.1057 20.5192 19.4381 20.4686 18.6812C20.4436 18.3072 20.5382 17.9063 20.7176 17.625C20.8699 17.3864 21.1417 17.1094 21.2235 17.1094C21.2624 17.1094 21.4454 17.2201 21.6301 17.3555ZM15.2823 19.0312C15.1916 19.1184 15.1847 19.1875 15.1847 20.0122V20.8995L15.3134 20.9966C15.4605 21.1077 15.5223 21.1149 15.6917 21.0408C15.8952 20.9518 15.9249 20.7982 15.9081 19.9237C15.8931 19.1405 15.8892 19.1138 15.7774 19.027C15.6279 18.9109 15.4057 18.9128 15.2823 19.0312ZM3.2941 20.4156C3.6704 20.5097 3.98156 20.7292 4.22623 21.0731C4.46762 21.4123 4.61957 21.4508 4.97829 21.2633C5.48407 20.999 6.00801 21.0758 6.40833 21.4728C6.53591 21.5993 6.64025 21.7345 6.64025 21.7733C6.64025 21.8351 6.32001 21.8438 4.02809 21.8438H1.41594L1.41642 21.668C1.41735 21.327 1.76304 20.7922 2.11907 20.581C2.28122 20.4848 2.72665 20.3524 2.90706 20.3468C2.96185 20.3452 3.13601 20.3761 3.2941 20.4156ZM7.56794 22.9219V23.2969H4.15016H0.732381V22.9219V22.5469H4.15016H7.56794V22.9219ZM24.2662 22.9219V23.2969H22.362H20.4578V22.9219V22.5469H22.362H24.2662V22.9219Z" fill="#263238"/>
</svg>
